%TF.GenerationSoftware,Altium Limited,Altium Designer,22.10.1 (41)*%
G04 Layer_Color=8388736*
%FSLAX45Y45*%
%MOMM*%
%TF.SameCoordinates,C9E4A285-3493-4599-8121-F693CE24ADE7*%
%TF.FilePolarity,Negative*%
%TF.FileFunction,Soldermask,Top*%
%TF.Part,Single*%
G01*
G75*
%TA.AperFunction,BGAPad,CuDef*%
%ADD10R,0.90000X0.90000*%
%TA.AperFunction,SMDPad,CuDef*%
%ADD11R,0.90000X1.50000*%
%ADD12R,1.50000X0.90000*%
%ADD13R,0.80000X0.90000*%
%ADD14R,3.15000X3.15000*%
%ADD15R,0.30000X1.15000*%
%ADD16R,1.15000X0.30000*%
%ADD18R,1.25814X1.01213*%
%ADD19R,0.80000X0.75000*%
%ADD20R,0.65872X0.81213*%
%ADD21R,4.40000X2.50000*%
%ADD22R,0.81213X0.65872*%
%ADD23R,0.96213X0.86370*%
%ADD24R,2.40000X2.80000*%
%ADD26R,0.91213X0.95872*%
%TA.AperFunction,ComponentPad*%
%ADD28C,1.27000*%
%ADD32C,1.80000*%
%ADD33C,1.70000*%
%TA.AperFunction,SMDPad,CuDef*%
%ADD49R,1.10320X0.90320*%
%ADD50R,1.30320X1.45320*%
%TA.AperFunction,ComponentPad*%
%ADD51C,1.70320*%
%ADD52R,1.70320X1.70320*%
%ADD53R,1.70320X1.70320*%
%TA.AperFunction,ViaPad*%
%ADD54C,0.65320*%
%ADD55C,3.00000*%
D10*
X1409100Y2667000D02*
D03*
X1549100D02*
D03*
X1689100D02*
D03*
Y2387000D02*
D03*
X1549100D02*
D03*
X1409100D02*
D03*
X1689100Y2527000D02*
D03*
X1549100D02*
D03*
X1409100D02*
D03*
D11*
X777100Y3552000D02*
D03*
X904100D02*
D03*
X1031100D02*
D03*
X1158100D02*
D03*
X1285100D02*
D03*
X1412100D02*
D03*
X1539100D02*
D03*
X1666100D02*
D03*
X1793100D02*
D03*
X1920100D02*
D03*
X2047100D02*
D03*
X2174100D02*
D03*
X2301100D02*
D03*
X2428100D02*
D03*
Y1802000D02*
D03*
X2301100D02*
D03*
X2174100D02*
D03*
X2047100D02*
D03*
X1920100D02*
D03*
X1793100D02*
D03*
X1666100D02*
D03*
X1539100D02*
D03*
X1412100D02*
D03*
X1285100D02*
D03*
X1158100D02*
D03*
X1031100D02*
D03*
X777100D02*
D03*
X904100D02*
D03*
D12*
X2553100Y3248500D02*
D03*
Y3121500D02*
D03*
Y2994500D02*
D03*
Y2867500D02*
D03*
Y2740500D02*
D03*
Y2613500D02*
D03*
Y2486500D02*
D03*
Y2359500D02*
D03*
Y2232500D02*
D03*
Y2105500D02*
D03*
D13*
X4889500Y3661500D02*
D03*
Y3831500D02*
D03*
X3266440Y3735160D02*
D03*
Y3905160D02*
D03*
D14*
X5334000Y3610000D02*
D03*
X3695700Y3683000D02*
D03*
D15*
X5484000Y3370000D02*
D03*
X5434000D02*
D03*
X5384000D02*
D03*
X5334000D02*
D03*
X5284000D02*
D03*
X5234000D02*
D03*
X5184000D02*
D03*
Y3850000D02*
D03*
X5234000D02*
D03*
X5284000D02*
D03*
X5334000D02*
D03*
X5384000D02*
D03*
X5434000D02*
D03*
X5484000D02*
D03*
X3845700Y3923000D02*
D03*
X3795700D02*
D03*
X3745700D02*
D03*
X3695700D02*
D03*
X3645700D02*
D03*
X3595700D02*
D03*
X3545700D02*
D03*
Y3443000D02*
D03*
X3595700D02*
D03*
X3645700D02*
D03*
X3695700D02*
D03*
X3745700D02*
D03*
X3795700D02*
D03*
X3845700D02*
D03*
D16*
X5094000Y3460000D02*
D03*
Y3510000D02*
D03*
Y3560000D02*
D03*
Y3610000D02*
D03*
Y3660000D02*
D03*
Y3710000D02*
D03*
Y3760000D02*
D03*
X5574000D02*
D03*
Y3710000D02*
D03*
Y3660000D02*
D03*
Y3610000D02*
D03*
Y3560000D02*
D03*
Y3510000D02*
D03*
Y3460000D02*
D03*
X3935700Y3533000D02*
D03*
Y3583000D02*
D03*
Y3633000D02*
D03*
Y3683000D02*
D03*
Y3733000D02*
D03*
Y3783000D02*
D03*
Y3833000D02*
D03*
X3455700D02*
D03*
Y3783000D02*
D03*
Y3733000D02*
D03*
Y3683000D02*
D03*
Y3633000D02*
D03*
Y3583000D02*
D03*
Y3533000D02*
D03*
D18*
X918439Y1455420D02*
D03*
X763041D02*
D03*
D19*
X900500Y1623060D02*
D03*
X750500D02*
D03*
D20*
X1164951D02*
D03*
X1029609D02*
D03*
D21*
X4964800Y2197100D02*
D03*
X5804800D02*
D03*
X3580500Y1727200D02*
D03*
X4420500D02*
D03*
D22*
X4762500Y3658509D02*
D03*
Y3793851D02*
D03*
X3126740Y3872591D02*
D03*
Y3737249D02*
D03*
D23*
X5283200Y4167419D02*
D03*
Y4021541D02*
D03*
X5118100D02*
D03*
Y4167419D02*
D03*
X3644900Y4092661D02*
D03*
Y4238539D02*
D03*
X3479800Y4092661D02*
D03*
Y4238539D02*
D03*
D24*
X5990000Y1190000D02*
D03*
X4850000D02*
D03*
X5990000Y580000D02*
D03*
X4850000D02*
D03*
D26*
X3939540Y4090389D02*
D03*
Y4235731D02*
D03*
X5572760Y4021809D02*
D03*
Y4167151D02*
D03*
D28*
X3611880Y693420D02*
D03*
X3865880D02*
D03*
X4119880D02*
D03*
D32*
X5420000Y1030000D02*
D03*
D33*
Y580000D02*
D03*
D49*
X5435600Y3176340D02*
D03*
Y3026340D02*
D03*
X5199380Y3023800D02*
D03*
Y3173800D02*
D03*
X3571240Y3234760D02*
D03*
Y3084760D02*
D03*
X3794760Y3100000D02*
D03*
Y3250000D02*
D03*
D50*
X4310000Y3855000D02*
D03*
Y3685000D02*
D03*
X4100000Y3885000D02*
D03*
Y4055000D02*
D03*
X5986780Y3785780D02*
D03*
Y3615780D02*
D03*
X5768340Y3816440D02*
D03*
Y3986440D02*
D03*
D51*
X2997200Y2540000D02*
D03*
Y2794000D02*
D03*
Y3048000D02*
D03*
X1470000Y4670000D02*
D03*
X1724000D02*
D03*
X1978000D02*
D03*
X1155700Y4673600D02*
D03*
X901700D02*
D03*
X647700D02*
D03*
X2687320Y3853180D02*
D03*
X6489700Y2794000D02*
D03*
Y3048000D02*
D03*
Y3302000D02*
D03*
D52*
X2997200D02*
D03*
X6489700Y2540000D02*
D03*
D53*
X2232000Y4670000D02*
D03*
X393700Y4673600D02*
D03*
X2433320Y3853180D02*
D03*
D54*
X5880100Y3987800D02*
D03*
X5765800Y4102100D02*
D03*
X4102100Y4178300D02*
D03*
X4229100Y4051300D02*
D03*
X5100000Y3250000D02*
D03*
X3000000Y4150000D02*
D03*
X2550000D02*
D03*
X5600000Y3900000D02*
D03*
X3950000Y3950000D02*
D03*
X4900000Y4000000D02*
D03*
X6100000Y3300000D02*
D03*
X5900000D02*
D03*
X5700000D02*
D03*
X3200000D02*
D03*
Y3400000D02*
D03*
X750774Y1944489D02*
D03*
Y2044489D02*
D03*
Y2144489D02*
D03*
Y2244489D02*
D03*
Y2344489D02*
D03*
Y2444489D02*
D03*
Y2544489D02*
D03*
Y2644489D02*
D03*
Y2744489D02*
D03*
Y2844489D02*
D03*
Y2944489D02*
D03*
Y3044489D02*
D03*
Y3144489D02*
D03*
Y3244489D02*
D03*
X6750000Y5000000D02*
D03*
X6500000Y4500000D02*
D03*
X6750000Y4000000D02*
D03*
X6500000Y3500000D02*
D03*
X6750000Y3000000D02*
D03*
Y2000000D02*
D03*
X6500000Y1500000D02*
D03*
X6750000Y1000000D02*
D03*
X6500000Y500000D02*
D03*
X6250000Y5000000D02*
D03*
X6000000Y4500000D02*
D03*
X6250000Y4000000D02*
D03*
Y3000000D02*
D03*
X6000000Y2500000D02*
D03*
X6250000Y2000000D02*
D03*
X6000000Y1500000D02*
D03*
X6250000Y1000000D02*
D03*
X5750000Y5000000D02*
D03*
X5500000Y4500000D02*
D03*
X5750000Y3000000D02*
D03*
X5500000Y2500000D02*
D03*
X5750000Y2000000D02*
D03*
X5500000Y1500000D02*
D03*
X5750000Y1000000D02*
D03*
X5250000Y5000000D02*
D03*
X5000000Y4500000D02*
D03*
X5250000Y1000000D02*
D03*
X4750000Y5000000D02*
D03*
X4500000Y4500000D02*
D03*
X4750000Y3000000D02*
D03*
X4250000Y5000000D02*
D03*
X4000000Y4500000D02*
D03*
X3750000Y5000000D02*
D03*
X3500000Y4500000D02*
D03*
X3750000Y2000000D02*
D03*
X3500000Y1500000D02*
D03*
X3750000Y1000000D02*
D03*
X3500000Y500000D02*
D03*
X3250000Y5000000D02*
D03*
X3000000Y4500000D02*
D03*
Y1500000D02*
D03*
X3250000Y1000000D02*
D03*
X2750000Y5000000D02*
D03*
X2500000Y4500000D02*
D03*
X2750000Y3000000D02*
D03*
Y2000000D02*
D03*
Y1000000D02*
D03*
X2250000Y5000000D02*
D03*
X2000000Y4500000D02*
D03*
X2250000Y4000000D02*
D03*
Y3000000D02*
D03*
X2000000Y2500000D02*
D03*
X2250000Y2000000D02*
D03*
Y1000000D02*
D03*
X1750000Y5000000D02*
D03*
X1500000Y4500000D02*
D03*
X1750000Y4000000D02*
D03*
Y3000000D02*
D03*
Y2000000D02*
D03*
X1500000Y1500000D02*
D03*
X1750000Y1000000D02*
D03*
X1500000Y500000D02*
D03*
X1250000Y5000000D02*
D03*
Y3000000D02*
D03*
X1000000Y2500000D02*
D03*
X1250000Y2000000D02*
D03*
Y1000000D02*
D03*
X1000000Y500000D02*
D03*
X750000Y5000000D02*
D03*
X500000Y4500000D02*
D03*
X750000Y4000000D02*
D03*
X500000Y1500000D02*
D03*
X750000Y1000000D02*
D03*
X750774Y3344489D02*
D03*
Y3444489D02*
D03*
X650000Y3650000D02*
D03*
X550000D02*
D03*
X450000D02*
D03*
X350000D02*
D03*
X250000D02*
D03*
X50000D02*
D03*
X150000D02*
D03*
X650000Y1700000D02*
D03*
X550000D02*
D03*
X450000D02*
D03*
X350000D02*
D03*
X250000D02*
D03*
X50000D02*
D03*
X150000D02*
D03*
X4995000Y4167419D02*
D03*
X3356700Y4238539D02*
D03*
X5029200Y3833520D02*
D03*
X3390900Y3906520D02*
D03*
X3948530Y3442790D02*
D03*
X5586900Y3369860D02*
D03*
X5483860Y3267100D02*
D03*
X5081100Y3370140D02*
D03*
X3442800Y3443140D02*
D03*
X3845560Y3340100D02*
D03*
X4027502Y1769899D02*
D03*
X4027502Y1969899D02*
D03*
X4027502Y2169899D02*
D03*
X4027502Y2369899D02*
D03*
X4427502Y2369898D02*
D03*
X5227502Y2369897D02*
D03*
X5227501Y1969898D02*
D03*
X5027501Y1969898D02*
D03*
X5127500Y1269898D02*
D03*
X5127501Y1469898D02*
D03*
X5027500Y1369898D02*
D03*
X5027501Y1569898D02*
D03*
X5127501Y1669898D02*
D03*
X5127501Y1869898D02*
D03*
X4627502Y2169898D02*
D03*
X4627502Y2369898D02*
D03*
X4127502Y2269899D02*
D03*
X4127502Y2069899D02*
D03*
X4227502Y2369898D02*
D03*
X4227502Y2169899D02*
D03*
X4527502Y2269898D02*
D03*
X4327502Y2269898D02*
D03*
X4127502Y1869899D02*
D03*
X4127502Y1669899D02*
D03*
X4227502Y1969899D02*
D03*
X4327502Y2069899D02*
D03*
X4427502Y2169898D02*
D03*
X4427502Y1969899D02*
D03*
X4527502Y2069898D02*
D03*
X4827501Y1969898D02*
D03*
X4627502Y1969898D02*
D03*
X4727501Y1869898D02*
D03*
X4727501Y1669898D02*
D03*
X5027501Y1769898D02*
D03*
X4827501Y1769898D02*
D03*
X4927501Y1469898D02*
D03*
X4927501Y1669898D02*
D03*
X4827501Y1569898D02*
D03*
X4727501Y1469899D02*
D03*
X4527501Y1469899D02*
D03*
X4027501Y1569899D02*
D03*
X4327501Y1469899D02*
D03*
X4127501Y1469899D02*
D03*
X4627501Y1369899D02*
D03*
X4427501Y1369899D02*
D03*
X4227501Y1369899D02*
D03*
X4027501Y1369899D02*
D03*
X4627500Y969899D02*
D03*
X4627501Y1169899D02*
D03*
X4527501Y1269899D02*
D03*
X4327501Y1269899D02*
D03*
X4127501Y1269899D02*
D03*
X4127501Y1069900D02*
D03*
X4427501Y1169899D02*
D03*
X4227501Y1169899D02*
D03*
X4527500Y1069899D02*
D03*
X4327501Y1069899D02*
D03*
X4827500Y769899D02*
D03*
X4827500Y969899D02*
D03*
X4727500Y869899D02*
D03*
X4527500Y469899D02*
D03*
X4627500Y569899D02*
D03*
X4627500Y769899D02*
D03*
X4427500Y369900D02*
D03*
X4427500Y569900D02*
D03*
X4527500Y669899D02*
D03*
X4527500Y869899D02*
D03*
X4427500Y969899D02*
D03*
X4227501Y969900D02*
D03*
X4327500Y869899D02*
D03*
X4127501Y869900D02*
D03*
X4427500Y769899D02*
D03*
X4227500Y769900D02*
D03*
X4327500Y469900D02*
D03*
X4327500Y669900D02*
D03*
X4227500Y569900D02*
D03*
X4027500Y569900D02*
D03*
X4227500Y369900D02*
D03*
X4127500Y469900D02*
D03*
X4027500Y369900D02*
D03*
X4878340Y3562080D02*
D03*
X2174100Y1653680D02*
D03*
X4978400Y3708400D02*
D03*
X2047240Y1653540D02*
D03*
X1100000Y1299999D02*
D03*
X1000000Y1200000D02*
D03*
X900000Y1300000D02*
D03*
D55*
X6500000Y5000000D02*
D03*
X400000D02*
D03*
Y400000D02*
D03*
X6500000D02*
D03*
%TF.MD5,e2835eb12cd04addbda54185dafdf82e*%
M02*
