%TF.GenerationSoftware,Altium Limited,Altium Designer,22.10.1 (41)*%
G04 Layer_Physical_Order=3*
G04 Layer_Color=128*
%FSLAX45Y45*%
%MOMM*%
%TF.SameCoordinates,C9E4A285-3493-4599-8121-F693CE24ADE7*%
%TF.FilePolarity,Negative*%
%TF.FileFunction,Copper,L3,Inr,Plane*%
%TF.Part,Single*%
G01*
G75*
%TA.AperFunction,NonConductor*%
%ADD36C,1.01600*%
%TA.AperFunction,ComponentPad*%
%ADD37C,1.77800*%
%ADD38C,1.91600*%
%ADD39C,2.81600*%
%ADD40C,2.71600*%
%TA.AperFunction,ViaPad*%
%ADD41C,1.34600*%
%ADD42C,1.01600*%
%TA.AperFunction,NonConductor*%
%ADD43C,0.25400*%
D36*
X6400800D02*
G03*
X6908800Y508000I0J508000D01*
G01*
Y4876800D02*
G03*
X6400800Y5384800I-508000J0D01*
G01*
X508000D02*
G03*
X0Y4876800I0J-508000D01*
G01*
Y508000D02*
G03*
X508000Y0I508000J0D01*
G01*
X6400800D01*
X6908800Y508000D02*
Y4876800D01*
X508000Y5384800D02*
X6400800D01*
X0Y508000D02*
Y4876800D01*
D37*
X3865880Y693420D02*
D03*
D38*
X2997200Y2540000D02*
D03*
Y2794000D02*
D03*
Y3048000D02*
D03*
Y3302000D02*
D03*
X1470000Y4670000D02*
D03*
X1724000D02*
D03*
X1978000D02*
D03*
X1155700Y4673600D02*
D03*
X901700D02*
D03*
X647700D02*
D03*
X2433320Y3853180D02*
D03*
X2687320D02*
D03*
X6489700Y2540000D02*
D03*
Y2794000D02*
D03*
Y3048000D02*
D03*
Y3302000D02*
D03*
D39*
X5420000Y1030000D02*
D03*
D40*
Y580000D02*
D03*
D41*
X4102100Y4178300D02*
D03*
X5100000Y3250000D02*
D03*
X3000000Y4150000D02*
D03*
X2550000D02*
D03*
X5600000Y3900000D02*
D03*
X3950000Y3950000D02*
D03*
X4900000Y4000000D02*
D03*
X6100000Y3300000D02*
D03*
X5900000D02*
D03*
X5700000D02*
D03*
X3200000D02*
D03*
Y3400000D02*
D03*
X750774Y1944489D02*
D03*
Y2044489D02*
D03*
Y2144489D02*
D03*
Y2244489D02*
D03*
Y2344489D02*
D03*
Y2444489D02*
D03*
Y2544489D02*
D03*
Y2644489D02*
D03*
Y2744489D02*
D03*
Y2844489D02*
D03*
Y2944489D02*
D03*
Y3044489D02*
D03*
Y3144489D02*
D03*
Y3244489D02*
D03*
X6750000Y5000000D02*
D03*
X6500000Y4500000D02*
D03*
X6750000Y4000000D02*
D03*
X6500000Y3500000D02*
D03*
X6750000Y3000000D02*
D03*
Y2000000D02*
D03*
X6500000Y1500000D02*
D03*
X6750000Y1000000D02*
D03*
X6500000Y500000D02*
D03*
X6250000Y5000000D02*
D03*
X6000000Y4500000D02*
D03*
X6250000Y4000000D02*
D03*
Y3000000D02*
D03*
X6000000Y2500000D02*
D03*
X6250000Y2000000D02*
D03*
X6000000Y1500000D02*
D03*
X6250000Y1000000D02*
D03*
X5750000Y5000000D02*
D03*
X5500000Y4500000D02*
D03*
X5750000Y3000000D02*
D03*
X5500000Y2500000D02*
D03*
X5750000Y2000000D02*
D03*
X5500000Y1500000D02*
D03*
X5750000Y1000000D02*
D03*
X5250000Y5000000D02*
D03*
X5000000Y4500000D02*
D03*
X5250000Y1000000D02*
D03*
X4750000Y5000000D02*
D03*
X4500000Y4500000D02*
D03*
X4750000Y3000000D02*
D03*
X4250000Y5000000D02*
D03*
X4000000Y4500000D02*
D03*
X3750000Y5000000D02*
D03*
X3500000Y4500000D02*
D03*
X3750000Y2000000D02*
D03*
X3500000Y1500000D02*
D03*
X3750000Y1000000D02*
D03*
X3500000Y500000D02*
D03*
X3250000Y5000000D02*
D03*
X3000000Y4500000D02*
D03*
Y1500000D02*
D03*
X3250000Y1000000D02*
D03*
X2750000Y5000000D02*
D03*
X2500000Y4500000D02*
D03*
X2750000Y3000000D02*
D03*
Y2000000D02*
D03*
Y1000000D02*
D03*
X2250000Y5000000D02*
D03*
X2000000Y4500000D02*
D03*
X2250000Y4000000D02*
D03*
Y3000000D02*
D03*
X2000000Y2500000D02*
D03*
X2250000Y2000000D02*
D03*
Y1000000D02*
D03*
X1750000Y5000000D02*
D03*
X1500000Y4500000D02*
D03*
X1750000Y4000000D02*
D03*
Y3000000D02*
D03*
Y2000000D02*
D03*
X1500000Y1500000D02*
D03*
X1750000Y1000000D02*
D03*
X1500000Y500000D02*
D03*
X1250000Y5000000D02*
D03*
Y3000000D02*
D03*
X1000000Y2500000D02*
D03*
X1250000Y2000000D02*
D03*
Y1000000D02*
D03*
X1000000Y500000D02*
D03*
X750000Y5000000D02*
D03*
X500000Y4500000D02*
D03*
X750000Y4000000D02*
D03*
X500000Y1500000D02*
D03*
X750000Y1000000D02*
D03*
X750774Y3344489D02*
D03*
Y3444489D02*
D03*
X650000Y3650000D02*
D03*
X550000D02*
D03*
X450000D02*
D03*
X350000D02*
D03*
X250000D02*
D03*
X50000D02*
D03*
X150000D02*
D03*
X650000Y1700000D02*
D03*
X550000D02*
D03*
X450000D02*
D03*
X350000D02*
D03*
X250000D02*
D03*
X50000D02*
D03*
X150000D02*
D03*
X4878340Y3562080D02*
D03*
X2174100Y1653680D02*
D03*
X4978400Y3708400D02*
D03*
X2047240Y1653540D02*
D03*
D42*
X6500000Y5000000D02*
D03*
X400000D02*
D03*
Y400000D02*
D03*
X6500000D02*
D03*
D43*
X848360Y3507740D02*
X1089660Y3749040D01*
X1844040Y4503420D01*
Y4765040D01*
X1955800Y4876800D01*
X1976120D01*
X3350260Y1427480D02*
X3746500Y1031240D01*
X848360Y755739D02*
X1136739Y467360D01*
X848360Y755739D02*
Y3507740D01*
X1976120Y4876800D02*
X5100320D01*
X5466080Y4511040D01*
Y3873500D02*
Y4511040D01*
X5074920Y3482340D02*
X5466080Y3873500D01*
X4602480Y3482340D02*
X5074920D01*
X4602480D02*
Y4112260D01*
X4495800Y4218940D02*
X4602480Y4112260D01*
X3845560Y4218940D02*
X4495800D01*
X3350260Y3723640D02*
X3845560Y4218940D01*
X3350260Y3723640D02*
X3350260Y1427480D01*
X3746500Y566420D02*
Y1031240D01*
X3647440Y467360D02*
X3746500Y566420D01*
X3230880Y467360D02*
X3647440D01*
X1136739D02*
X3230880D01*
%TF.MD5,8645efd2055b48f976f410919bf04eb7*%
M02*
