%TF.GenerationSoftware,Altium Limited,Altium Designer,22.10.1 (41)*%
G04 Layer_Color=8421504*
%FSLAX45Y45*%
%MOMM*%
%TF.SameCoordinates,C9E4A285-3493-4599-8121-F693CE24ADE7*%
%TF.FilePolarity,Positive*%
%TF.FileFunction,Paste,Top*%
%TF.Part,Single*%
G01*
G75*
%TA.AperFunction,BGAPad,CuDef*%
%ADD10R,0.90000X0.90000*%
%TA.AperFunction,SMDPad,CuDef*%
%ADD11R,0.90000X1.50000*%
%ADD12R,1.50000X0.90000*%
%ADD13R,0.80000X0.90000*%
%ADD14R,3.15000X3.15000*%
%ADD15R,0.30000X1.15000*%
%ADD16R,1.15000X0.30000*%
%ADD17R,0.90000X0.70000*%
%ADD18R,1.25814X1.01213*%
%ADD19R,0.80000X0.75000*%
%ADD20R,0.65872X0.81213*%
%ADD21R,4.40000X2.50000*%
%ADD22R,0.81213X0.65872*%
%ADD23R,0.96213X0.86370*%
%ADD24R,2.40000X2.80000*%
%ADD25R,1.10000X1.25000*%
%ADD26R,0.91213X0.95872*%
D10*
X1409100Y2667000D02*
D03*
X1549100D02*
D03*
X1689100D02*
D03*
Y2387000D02*
D03*
X1549100D02*
D03*
X1409100D02*
D03*
X1689100Y2527000D02*
D03*
X1549100D02*
D03*
X1409100D02*
D03*
D11*
X777100Y3552000D02*
D03*
X904100D02*
D03*
X1031100D02*
D03*
X1158100D02*
D03*
X1285100D02*
D03*
X1412100D02*
D03*
X1539100D02*
D03*
X1666100D02*
D03*
X1793100D02*
D03*
X1920100D02*
D03*
X2047100D02*
D03*
X2174100D02*
D03*
X2301100D02*
D03*
X2428100D02*
D03*
Y1802000D02*
D03*
X2301100D02*
D03*
X2174100D02*
D03*
X2047100D02*
D03*
X1920100D02*
D03*
X1793100D02*
D03*
X1666100D02*
D03*
X1539100D02*
D03*
X1412100D02*
D03*
X1285100D02*
D03*
X1158100D02*
D03*
X1031100D02*
D03*
X777100D02*
D03*
X904100D02*
D03*
D12*
X2553100Y3248500D02*
D03*
Y3121500D02*
D03*
Y2994500D02*
D03*
Y2867500D02*
D03*
Y2740500D02*
D03*
Y2613500D02*
D03*
Y2486500D02*
D03*
Y2359500D02*
D03*
Y2232500D02*
D03*
Y2105500D02*
D03*
D13*
X4889500Y3661500D02*
D03*
Y3831500D02*
D03*
X3266440Y3735160D02*
D03*
Y3905160D02*
D03*
D14*
X5334000Y3610000D02*
D03*
X3695700Y3683000D02*
D03*
D15*
X5484000Y3370000D02*
D03*
X5434000D02*
D03*
X5384000D02*
D03*
X5334000D02*
D03*
X5284000D02*
D03*
X5234000D02*
D03*
X5184000D02*
D03*
Y3850000D02*
D03*
X5234000D02*
D03*
X5284000D02*
D03*
X5334000D02*
D03*
X5384000D02*
D03*
X5434000D02*
D03*
X5484000D02*
D03*
X3845700Y3923000D02*
D03*
X3795700D02*
D03*
X3745700D02*
D03*
X3695700D02*
D03*
X3645700D02*
D03*
X3595700D02*
D03*
X3545700D02*
D03*
Y3443000D02*
D03*
X3595700D02*
D03*
X3645700D02*
D03*
X3695700D02*
D03*
X3745700D02*
D03*
X3795700D02*
D03*
X3845700D02*
D03*
D16*
X5094000Y3460000D02*
D03*
Y3510000D02*
D03*
Y3560000D02*
D03*
Y3610000D02*
D03*
Y3660000D02*
D03*
Y3710000D02*
D03*
Y3760000D02*
D03*
X5574000D02*
D03*
Y3710000D02*
D03*
Y3660000D02*
D03*
Y3610000D02*
D03*
Y3560000D02*
D03*
Y3510000D02*
D03*
Y3460000D02*
D03*
X3935700Y3533000D02*
D03*
Y3583000D02*
D03*
Y3633000D02*
D03*
Y3683000D02*
D03*
Y3733000D02*
D03*
Y3783000D02*
D03*
Y3833000D02*
D03*
X3455700D02*
D03*
Y3783000D02*
D03*
Y3733000D02*
D03*
Y3683000D02*
D03*
Y3633000D02*
D03*
Y3583000D02*
D03*
Y3533000D02*
D03*
D17*
X5435600Y3176340D02*
D03*
Y3026340D02*
D03*
X5199380Y3023800D02*
D03*
Y3173800D02*
D03*
X3571240Y3234760D02*
D03*
Y3084760D02*
D03*
X3794760Y3100000D02*
D03*
Y3250000D02*
D03*
D18*
X918439Y1455420D02*
D03*
X763041D02*
D03*
D19*
X900500Y1623060D02*
D03*
X750500D02*
D03*
D20*
X1164951D02*
D03*
X1029609D02*
D03*
D21*
X4964800Y2197100D02*
D03*
X5804800D02*
D03*
X3580500Y1727200D02*
D03*
X4420500D02*
D03*
D22*
X4762500Y3658509D02*
D03*
Y3793851D02*
D03*
X3126740Y3872591D02*
D03*
Y3737249D02*
D03*
D23*
X5283200Y4167419D02*
D03*
Y4021541D02*
D03*
X5118100D02*
D03*
Y4167419D02*
D03*
X3644900Y4092661D02*
D03*
Y4238539D02*
D03*
X3479800Y4092661D02*
D03*
Y4238539D02*
D03*
D24*
X5990000Y1190000D02*
D03*
X4850000D02*
D03*
X5990000Y580000D02*
D03*
X4850000D02*
D03*
D25*
X4310000Y3855000D02*
D03*
Y3685000D02*
D03*
X4100000Y3885000D02*
D03*
Y4055000D02*
D03*
X5986780Y3785780D02*
D03*
Y3615780D02*
D03*
X5768340Y3816440D02*
D03*
Y3986440D02*
D03*
D26*
X3939540Y4090389D02*
D03*
Y4235731D02*
D03*
X5572760Y4021809D02*
D03*
Y4167151D02*
D03*
%TF.MD5,a30459d140eff09473d2749d03eb8d9d*%
M02*
