%TF.GenerationSoftware,Altium Limited,Altium Designer,22.10.1 (41)*%
G04 Layer_Color=255*
%FSLAX45Y45*%
%MOMM*%
%TF.SameCoordinates,C9E4A285-3493-4599-8121-F693CE24ADE7*%
%TF.FilePolarity,Positive*%
%TF.FileFunction,Pads,Bot*%
%TF.Part,Single*%
G01*
G75*
%TA.AperFunction,ComponentPad*%
%ADD28C,1.27000*%
%ADD29C,1.50000*%
%ADD30R,1.50000X1.50000*%
%ADD31R,1.50000X1.50000*%
%ADD32C,1.80000*%
%ADD33C,1.70000*%
D28*
X3611880Y693420D02*
D03*
X3865880D02*
D03*
X4119880D02*
D03*
D29*
X2997200Y2540000D02*
D03*
Y2794000D02*
D03*
Y3048000D02*
D03*
X1470000Y4670000D02*
D03*
X1724000D02*
D03*
X1978000D02*
D03*
X1155700Y4673600D02*
D03*
X901700D02*
D03*
X647700D02*
D03*
X2687320Y3853180D02*
D03*
X6489700Y2794000D02*
D03*
Y3048000D02*
D03*
Y3302000D02*
D03*
D30*
X2997200D02*
D03*
X6489700Y2540000D02*
D03*
D31*
X2232000Y4670000D02*
D03*
X393700Y4673600D02*
D03*
X2433320Y3853180D02*
D03*
D32*
X5420000Y1030000D02*
D03*
D33*
Y580000D02*
D03*
%TF.MD5,01e8cbe2a0ba48d99ec8279ebdb80d7f*%
M02*
