%TF.GenerationSoftware,Altium Limited,Altium Designer,22.10.1 (41)*%
G04 Layer_Physical_Order=4*
G04 Layer_Color=16711680*
%FSLAX45Y45*%
%MOMM*%
%TF.SameCoordinates,C9E4A285-3493-4599-8121-F693CE24ADE7*%
%TF.FilePolarity,Positive*%
%TF.FileFunction,Copper,L4,Bot,Signal*%
%TF.Part,Single*%
G01*
G75*
%TA.AperFunction,Conductor*%
%ADD27C,0.25400*%
%TA.AperFunction,ComponentPad*%
%ADD28C,1.27000*%
%ADD29C,1.50000*%
%ADD30R,1.50000X1.50000*%
%ADD31R,1.50000X1.50000*%
%ADD32C,1.80000*%
%ADD33C,1.70000*%
%TA.AperFunction,ViaPad*%
%ADD34C,0.45000*%
%ADD35C,1.00000*%
G36*
X508000Y5384800D02*
X6400797Y5384798D01*
X6400798Y5384798D01*
X6400798Y5384798D01*
X6434094Y5384798D01*
X6500117Y5376107D01*
X6564440Y5358872D01*
X6625963Y5333389D01*
X6683634Y5300093D01*
X6736465Y5259554D01*
X6783553Y5212467D01*
X6824092Y5159636D01*
X6857389Y5101965D01*
X6882872Y5040442D01*
X6900108Y4976119D01*
X6908800Y4910096D01*
X6908799Y4876800D01*
X6908800Y508000D01*
X6908799Y508000D01*
X6908799Y474704D01*
X6900108Y408681D01*
X6882872Y344358D01*
X6857389Y282835D01*
X6824093Y225164D01*
X6783554Y172333D01*
X6736466Y125246D01*
X6683635Y84707D01*
X6625965Y51411D01*
X6564442Y25927D01*
X6500118Y8692D01*
X6434096Y0D01*
X6400800Y0D01*
X507995D01*
X474699Y0D01*
X408676Y8692D01*
X344354Y25927D01*
X282831Y51411D01*
X225160Y84707D01*
X172330Y125246D01*
X125242Y172333D01*
X84704Y225165D01*
X51408Y282835D01*
X25925Y344358D01*
X8691Y408681D01*
X-0Y474704D01*
X0Y508000D01*
X0Y4864834D01*
X1Y4876796D01*
X1Y4876796D01*
X1Y4876797D01*
X0Y4876797D01*
X0Y4910093D01*
X8691Y4976116D01*
X25926Y5040439D01*
X51409Y5101963D01*
X84705Y5159634D01*
X125243Y5212466D01*
X172331Y5259554D01*
X225163Y5300093D01*
X282834Y5333390D01*
X344357Y5358873D01*
X408681Y5376108D01*
X474703Y5384800D01*
X508000Y5384800D01*
D02*
G37*
%LPC*%
G36*
X6512472Y5062700D02*
X6487528D01*
X6464483Y5053154D01*
X6446846Y5035516D01*
X6437300Y5012472D01*
Y4987528D01*
X6446846Y4964483D01*
X6464483Y4946846D01*
X6487528Y4937300D01*
X6512472D01*
X6535517Y4946846D01*
X6553154Y4964483D01*
X6562700Y4987528D01*
Y5012472D01*
X6553154Y5035516D01*
X6535517Y5053154D01*
X6512472Y5062700D01*
D02*
G37*
G36*
X412472D02*
X387528D01*
X364483Y5053154D01*
X346846Y5035516D01*
X337300Y5012472D01*
Y4987528D01*
X346846Y4964483D01*
X364483Y4946846D01*
X387528Y4937300D01*
X412472D01*
X435517Y4946846D01*
X453154Y4964483D01*
X462700Y4987528D01*
Y5012472D01*
X453154Y5035516D01*
X435517Y5053154D01*
X412472Y5062700D01*
D02*
G37*
G36*
X1167246Y4761300D02*
X1144154D01*
X1121849Y4755323D01*
X1101851Y4743777D01*
X1085523Y4727449D01*
X1073977Y4707451D01*
X1068000Y4685146D01*
Y4662054D01*
X1073977Y4639749D01*
X1085523Y4619751D01*
X1101851Y4603423D01*
X1121849Y4591877D01*
X1144154Y4585900D01*
X1167246D01*
X1189551Y4591877D01*
X1209549Y4603423D01*
X1225877Y4619751D01*
X1237423Y4639749D01*
X1243400Y4662054D01*
Y4685146D01*
X1237423Y4707451D01*
X1225877Y4727449D01*
X1209549Y4743777D01*
X1189551Y4755323D01*
X1167246Y4761300D01*
D02*
G37*
G36*
X913246D02*
X890154D01*
X867849Y4755323D01*
X847851Y4743777D01*
X831523Y4727449D01*
X819977Y4707451D01*
X814000Y4685146D01*
Y4662054D01*
X819977Y4639749D01*
X831523Y4619751D01*
X847851Y4603423D01*
X867849Y4591877D01*
X890154Y4585900D01*
X913246D01*
X935551Y4591877D01*
X955549Y4603423D01*
X971877Y4619751D01*
X983423Y4639749D01*
X989400Y4662054D01*
Y4685146D01*
X983423Y4707451D01*
X971877Y4727449D01*
X955549Y4743777D01*
X935551Y4755323D01*
X913246Y4761300D01*
D02*
G37*
G36*
X481400D02*
X306000D01*
Y4585900D01*
X481400D01*
Y4761300D01*
D02*
G37*
G36*
X2319700Y4757700D02*
X2144300D01*
Y4582300D01*
X2319700D01*
Y4757700D01*
D02*
G37*
G36*
X1989546D02*
X1966454D01*
X1944149Y4751723D01*
X1924151Y4740177D01*
X1907823Y4723849D01*
X1896277Y4703851D01*
X1890300Y4681546D01*
Y4658454D01*
X1896277Y4636149D01*
X1907823Y4616151D01*
X1924151Y4599823D01*
X1944149Y4588277D01*
X1966454Y4582300D01*
X1989546D01*
X2011851Y4588277D01*
X2031849Y4599823D01*
X2048177Y4616151D01*
X2059723Y4636149D01*
X2065700Y4658454D01*
Y4681546D01*
X2059723Y4703851D01*
X2048177Y4723849D01*
X2031849Y4740177D01*
X2011851Y4751723D01*
X1989546Y4757700D01*
D02*
G37*
G36*
X1735546D02*
X1712454D01*
X1690149Y4751723D01*
X1670151Y4740177D01*
X1653823Y4723849D01*
X1642277Y4703851D01*
X1636300Y4681546D01*
Y4658454D01*
X1642277Y4636149D01*
X1653823Y4616151D01*
X1670151Y4599823D01*
X1690149Y4588277D01*
X1712454Y4582300D01*
X1735546D01*
X1757851Y4588277D01*
X1777849Y4599823D01*
X1794177Y4616151D01*
X1805723Y4636149D01*
X1811700Y4658454D01*
Y4681546D01*
X1805723Y4703851D01*
X1794177Y4723849D01*
X1777849Y4740177D01*
X1757851Y4751723D01*
X1735546Y4757700D01*
D02*
G37*
G36*
X3363702Y4273738D02*
X3349698D01*
X3336761Y4268380D01*
X3326859Y4258478D01*
X3321500Y4245540D01*
Y4231537D01*
X3326859Y4218600D01*
X3336761Y4208698D01*
X3349698Y4203339D01*
X3363702D01*
X3376639Y4208698D01*
X3386541Y4218600D01*
X3391900Y4231537D01*
Y4245540D01*
X3386541Y4258478D01*
X3376639Y4268380D01*
X3363702Y4273738D01*
D02*
G37*
G36*
X4109102Y4213500D02*
X4095098D01*
X4082161Y4208141D01*
X4072259Y4198239D01*
X4066900Y4185302D01*
Y4171298D01*
X4072259Y4158361D01*
X4082161Y4148459D01*
X4095098Y4143100D01*
X4109102D01*
X4122039Y4148459D01*
X4131941Y4158361D01*
X4137300Y4171298D01*
Y4185302D01*
X4131941Y4198239D01*
X4122039Y4208141D01*
X4109102Y4213500D01*
D02*
G37*
G36*
X5002002Y4202618D02*
X4987998D01*
X4975061Y4197260D01*
X4965159Y4187358D01*
X4959800Y4174420D01*
Y4160417D01*
X4965159Y4147480D01*
X4975061Y4137578D01*
X4987998Y4132219D01*
X5002002D01*
X5014939Y4137578D01*
X5024841Y4147480D01*
X5030200Y4160417D01*
Y4174420D01*
X5024841Y4187358D01*
X5014939Y4197260D01*
X5002002Y4202618D01*
D02*
G37*
G36*
X5772802Y4137300D02*
X5758798D01*
X5745861Y4131941D01*
X5735959Y4122039D01*
X5730600Y4109102D01*
Y4095098D01*
X5735959Y4082161D01*
X5745861Y4072259D01*
X5758798Y4066900D01*
X5772802D01*
X5785739Y4072259D01*
X5795641Y4082161D01*
X5801000Y4095098D01*
Y4109102D01*
X5795641Y4122039D01*
X5785739Y4131941D01*
X5772802Y4137300D01*
D02*
G37*
G36*
X4236102Y4086500D02*
X4222098D01*
X4209161Y4081141D01*
X4199259Y4071239D01*
X4193900Y4058302D01*
Y4044298D01*
X4199259Y4031361D01*
X4209161Y4021459D01*
X4222098Y4016100D01*
X4236102D01*
X4249039Y4021459D01*
X4258941Y4031361D01*
X4264300Y4044298D01*
Y4058302D01*
X4258941Y4071239D01*
X4249039Y4081141D01*
X4236102Y4086500D01*
D02*
G37*
G36*
X5887102Y4023000D02*
X5873098D01*
X5860161Y4017641D01*
X5850259Y4007739D01*
X5844900Y3994802D01*
Y3980798D01*
X5850259Y3967861D01*
X5860161Y3957959D01*
X5873098Y3952600D01*
X5887102D01*
X5900039Y3957959D01*
X5909941Y3967861D01*
X5915300Y3980798D01*
Y3994802D01*
X5909941Y4007739D01*
X5900039Y4017641D01*
X5887102Y4023000D01*
D02*
G37*
G36*
X3397902Y3941720D02*
X3383898D01*
X3370961Y3936361D01*
X3361059Y3926459D01*
X3355700Y3913522D01*
Y3899518D01*
X3361059Y3886581D01*
X3370961Y3876679D01*
X3383898Y3871320D01*
X3397902D01*
X3410839Y3876679D01*
X3420741Y3886581D01*
X3426100Y3899518D01*
Y3913522D01*
X3420741Y3926459D01*
X3410839Y3936361D01*
X3397902Y3941720D01*
D02*
G37*
G36*
X5036202Y3868720D02*
X5022198D01*
X5009261Y3863361D01*
X4999359Y3853459D01*
X4994000Y3840522D01*
Y3826518D01*
X4999359Y3813581D01*
X5009261Y3803679D01*
X5022198Y3798320D01*
X5036202D01*
X5049139Y3803679D01*
X5059041Y3813581D01*
X5064400Y3826518D01*
Y3840522D01*
X5059041Y3853459D01*
X5049139Y3863361D01*
X5036202Y3868720D01*
D02*
G37*
G36*
X2521020Y3940880D02*
X2345620D01*
Y3765480D01*
X2521020D01*
Y3940880D01*
D02*
G37*
G36*
X4985402Y3743600D02*
X4971398D01*
X4958461Y3738241D01*
X4948559Y3728339D01*
X4943200Y3715402D01*
Y3701398D01*
X4948559Y3688461D01*
X4952502Y3684518D01*
Y3605126D01*
X4924115Y3576739D01*
X4909134Y3579719D01*
X4908181Y3582019D01*
X4898279Y3591921D01*
X4885342Y3597280D01*
X4871338D01*
X4858401Y3591921D01*
X4848499Y3582019D01*
X4843140Y3569082D01*
Y3561505D01*
X2961213Y1679578D01*
X2197982D01*
X2194039Y1683521D01*
X2181102Y1688880D01*
X2167098D01*
X2154161Y1683521D01*
X2144259Y1673619D01*
X2138900Y1660682D01*
Y1646678D01*
X2141112Y1641338D01*
X2132769Y1628638D01*
X2108767D01*
X2082440Y1654965D01*
Y1660542D01*
X2077081Y1673479D01*
X2067179Y1683381D01*
X2054242Y1688740D01*
X2040238D01*
X2027301Y1683381D01*
X2017399Y1673479D01*
X2012040Y1660542D01*
Y1646538D01*
X2017399Y1633601D01*
X2027301Y1623699D01*
X2040238Y1618340D01*
X2045815D01*
X2079728Y1584428D01*
X2088129Y1578814D01*
X2098040Y1576842D01*
X2986741D01*
X2996651Y1578814D01*
X3005053Y1584428D01*
X4996712Y3576087D01*
X5002326Y3584489D01*
X5004298Y3594399D01*
Y3684518D01*
X5008241Y3688461D01*
X5013600Y3701398D01*
Y3715402D01*
X5008241Y3728339D01*
X4998339Y3738241D01*
X4985402Y3743600D01*
D02*
G37*
G36*
X3449802Y3478340D02*
X3435798D01*
X3422861Y3472981D01*
X3412959Y3463079D01*
X3407600Y3450142D01*
Y3436138D01*
X3412959Y3423201D01*
X3422861Y3413299D01*
X3435798Y3407940D01*
X3449802D01*
X3462739Y3413299D01*
X3472641Y3423201D01*
X3478000Y3436138D01*
Y3450142D01*
X3472641Y3463079D01*
X3462739Y3472981D01*
X3449802Y3478340D01*
D02*
G37*
G36*
X3955532Y3477990D02*
X3941528D01*
X3928591Y3472631D01*
X3918689Y3462729D01*
X3913330Y3449792D01*
Y3435788D01*
X3918689Y3422851D01*
X3928591Y3412949D01*
X3941528Y3407590D01*
X3955532D01*
X3968469Y3412949D01*
X3978371Y3422851D01*
X3983730Y3435788D01*
Y3449792D01*
X3978371Y3462729D01*
X3968469Y3472631D01*
X3955532Y3477990D01*
D02*
G37*
G36*
X5088102Y3405340D02*
X5074098D01*
X5061161Y3399981D01*
X5051259Y3390079D01*
X5045900Y3377142D01*
Y3363139D01*
X5051259Y3350201D01*
X5061161Y3340299D01*
X5074098Y3334940D01*
X5088102D01*
X5101039Y3340299D01*
X5110941Y3350201D01*
X5116300Y3363139D01*
Y3377142D01*
X5110941Y3390079D01*
X5101039Y3399981D01*
X5088102Y3405340D01*
D02*
G37*
G36*
X5593902Y3405060D02*
X5579898D01*
X5566961Y3399701D01*
X5557059Y3389799D01*
X5551700Y3376862D01*
Y3362859D01*
X5557059Y3349921D01*
X5566961Y3340019D01*
X5579898Y3334661D01*
X5593902D01*
X5606839Y3340019D01*
X5616741Y3349921D01*
X5622100Y3362859D01*
Y3376862D01*
X5616741Y3389799D01*
X5606839Y3399701D01*
X5593902Y3405060D01*
D02*
G37*
G36*
X3852562Y3375300D02*
X3838558D01*
X3825621Y3369941D01*
X3815719Y3360039D01*
X3810360Y3347102D01*
Y3333098D01*
X3815719Y3320161D01*
X3825621Y3310259D01*
X3838558Y3304900D01*
X3852562D01*
X3865499Y3310259D01*
X3875401Y3320161D01*
X3880760Y3333098D01*
Y3347102D01*
X3875401Y3360039D01*
X3865499Y3369941D01*
X3852562Y3375300D01*
D02*
G37*
G36*
X5490862Y3302300D02*
X5476858D01*
X5463921Y3296941D01*
X5454019Y3287039D01*
X5448660Y3274102D01*
Y3260098D01*
X5454019Y3247161D01*
X5463921Y3237259D01*
X5476858Y3231900D01*
X5490862D01*
X5503799Y3237259D01*
X5513701Y3247161D01*
X5519060Y3260098D01*
Y3274102D01*
X5513701Y3287039D01*
X5503799Y3296941D01*
X5490862Y3302300D01*
D02*
G37*
G36*
X6501246Y3389700D02*
X6478154D01*
X6455849Y3383723D01*
X6435851Y3372177D01*
X6419523Y3355849D01*
X6407977Y3335851D01*
X6402000Y3313546D01*
Y3290454D01*
X6407977Y3268149D01*
X6419523Y3248151D01*
X6435851Y3231823D01*
X6455849Y3220277D01*
X6478154Y3214300D01*
X6501246D01*
X6523551Y3220277D01*
X6543549Y3231823D01*
X6559877Y3248151D01*
X6571423Y3268149D01*
X6577400Y3290454D01*
Y3313546D01*
X6571423Y3335851D01*
X6559877Y3355849D01*
X6543549Y3372177D01*
X6523551Y3383723D01*
X6501246Y3389700D01*
D02*
G37*
G36*
X3084900D02*
X2909500D01*
Y3214300D01*
X3084900D01*
Y3389700D01*
D02*
G37*
G36*
X6501246Y3135700D02*
X6478154D01*
X6455849Y3129723D01*
X6435851Y3118177D01*
X6419523Y3101849D01*
X6407977Y3081851D01*
X6402000Y3059546D01*
Y3036454D01*
X6407977Y3014149D01*
X6419523Y2994151D01*
X6435851Y2977823D01*
X6455849Y2966277D01*
X6478154Y2960300D01*
X6501246D01*
X6523551Y2966277D01*
X6543549Y2977823D01*
X6559877Y2994151D01*
X6571423Y3014149D01*
X6577400Y3036454D01*
Y3059546D01*
X6571423Y3081851D01*
X6559877Y3101849D01*
X6543549Y3118177D01*
X6523551Y3129723D01*
X6501246Y3135700D01*
D02*
G37*
G36*
X3008746D02*
X2985654D01*
X2963349Y3129723D01*
X2943351Y3118177D01*
X2927023Y3101849D01*
X2915477Y3081851D01*
X2909500Y3059546D01*
Y3036454D01*
X2915477Y3014149D01*
X2927023Y2994151D01*
X2943351Y2977823D01*
X2963349Y2966277D01*
X2985654Y2960300D01*
X3008746D01*
X3031051Y2966277D01*
X3051049Y2977823D01*
X3067377Y2994151D01*
X3078923Y3014149D01*
X3084900Y3036454D01*
Y3059546D01*
X3078923Y3081851D01*
X3067377Y3101849D01*
X3051049Y3118177D01*
X3031051Y3129723D01*
X3008746Y3135700D01*
D02*
G37*
G36*
X6501246Y2881700D02*
X6478154D01*
X6455849Y2875723D01*
X6435851Y2864177D01*
X6419523Y2847849D01*
X6407977Y2827851D01*
X6402000Y2805546D01*
Y2782454D01*
X6407977Y2760149D01*
X6419523Y2740151D01*
X6435851Y2723823D01*
X6455849Y2712277D01*
X6478154Y2706300D01*
X6501246D01*
X6523551Y2712277D01*
X6543549Y2723823D01*
X6559877Y2740151D01*
X6571423Y2760149D01*
X6577400Y2782454D01*
Y2805546D01*
X6571423Y2827851D01*
X6559877Y2847849D01*
X6543549Y2864177D01*
X6523551Y2875723D01*
X6501246Y2881700D01*
D02*
G37*
G36*
X3008746D02*
X2985654D01*
X2963349Y2875723D01*
X2943351Y2864177D01*
X2927023Y2847849D01*
X2915477Y2827851D01*
X2909500Y2805546D01*
Y2782454D01*
X2915477Y2760149D01*
X2927023Y2740151D01*
X2943351Y2723823D01*
X2963349Y2712277D01*
X2985654Y2706300D01*
X3008746D01*
X3031051Y2712277D01*
X3051049Y2723823D01*
X3067377Y2740151D01*
X3078923Y2760149D01*
X3084900Y2782454D01*
Y2805546D01*
X3078923Y2827851D01*
X3067377Y2847849D01*
X3051049Y2864177D01*
X3031051Y2875723D01*
X3008746Y2881700D01*
D02*
G37*
G36*
X6577400Y2627700D02*
X6402000D01*
Y2452300D01*
X6577400D01*
Y2627700D01*
D02*
G37*
G36*
X3008746D02*
X2985654D01*
X2963349Y2621723D01*
X2943351Y2610177D01*
X2927023Y2593849D01*
X2915477Y2573851D01*
X2909500Y2551546D01*
Y2528454D01*
X2915477Y2506149D01*
X2927023Y2486151D01*
X2943351Y2469823D01*
X2963349Y2458277D01*
X2985654Y2452300D01*
X3008746D01*
X3031051Y2458277D01*
X3051049Y2469823D01*
X3067377Y2486151D01*
X3078923Y2506149D01*
X3084900Y2528454D01*
Y2551546D01*
X3078923Y2573851D01*
X3067377Y2593849D01*
X3051049Y2610177D01*
X3031051Y2621723D01*
X3008746Y2627700D01*
D02*
G37*
G36*
X4034504Y2405099D02*
X4020501D01*
X4007563Y2399740D01*
X3997662Y2389838D01*
X3992303Y2376901D01*
Y2362897D01*
X3997662Y2349960D01*
X4007563Y2340058D01*
X4020501Y2334699D01*
X4034504D01*
X4047441Y2340058D01*
X4057343Y2349960D01*
X4062702Y2362897D01*
Y2376901D01*
X4057343Y2389838D01*
X4047441Y2399740D01*
X4034504Y2405099D01*
D02*
G37*
G36*
X4234504Y2405098D02*
X4220501D01*
X4207563Y2399739D01*
X4197661Y2389837D01*
X4192303Y2376900D01*
Y2362897D01*
X4197661Y2349959D01*
X4207563Y2340058D01*
X4220501Y2334699D01*
X4234504D01*
X4247441Y2340058D01*
X4257343Y2349959D01*
X4262702Y2362897D01*
Y2376900D01*
X4257343Y2389837D01*
X4247441Y2399739D01*
X4234504Y2405098D01*
D02*
G37*
G36*
X4434504Y2405098D02*
X4420500D01*
X4407563Y2399739D01*
X4397661Y2389837D01*
X4392302Y2376900D01*
Y2362896D01*
X4397661Y2349959D01*
X4407563Y2340057D01*
X4420500Y2334698D01*
X4434504D01*
X4447441Y2340057D01*
X4457343Y2349959D01*
X4462702Y2362896D01*
Y2376900D01*
X4457343Y2389837D01*
X4447441Y2399739D01*
X4434504Y2405098D01*
D02*
G37*
G36*
X4634504Y2405098D02*
X4620500D01*
X4607563Y2399739D01*
X4597661Y2389837D01*
X4592302Y2376900D01*
Y2362896D01*
X4597661Y2349959D01*
X4607563Y2340057D01*
X4620500Y2334698D01*
X4634504D01*
X4647441Y2340057D01*
X4657343Y2349959D01*
X4662702Y2362896D01*
Y2376900D01*
X4657343Y2389837D01*
X4647441Y2399739D01*
X4634504Y2405098D01*
D02*
G37*
G36*
X5234503Y2405097D02*
X5220500D01*
X5207563Y2399738D01*
X5197661Y2389836D01*
X5192302Y2376899D01*
Y2362895D01*
X5197661Y2349958D01*
X5207563Y2340056D01*
X5220500Y2334697D01*
X5234503D01*
X5247441Y2340056D01*
X5257343Y2349958D01*
X5262701Y2362895D01*
Y2376899D01*
X5257343Y2389836D01*
X5247441Y2399738D01*
X5234503Y2405097D01*
D02*
G37*
G36*
X4134504Y2305099D02*
X4120501D01*
X4107563Y2299740D01*
X4097661Y2289838D01*
X4092302Y2276900D01*
Y2262897D01*
X4097661Y2249960D01*
X4107563Y2240058D01*
X4120501Y2234699D01*
X4134504D01*
X4147441Y2240058D01*
X4157343Y2249960D01*
X4162702Y2262897D01*
Y2276900D01*
X4157343Y2289838D01*
X4147441Y2299740D01*
X4134504Y2305099D01*
D02*
G37*
G36*
X4334504Y2305098D02*
X4320500D01*
X4307563Y2299739D01*
X4297661Y2289837D01*
X4292302Y2276900D01*
Y2262897D01*
X4297661Y2249959D01*
X4307563Y2240057D01*
X4320500Y2234699D01*
X4334504D01*
X4347441Y2240057D01*
X4357343Y2249959D01*
X4362702Y2262897D01*
Y2276900D01*
X4357343Y2289837D01*
X4347441Y2299739D01*
X4334504Y2305098D01*
D02*
G37*
G36*
X4534504Y2305098D02*
X4520500D01*
X4507563Y2299739D01*
X4497661Y2289837D01*
X4492302Y2276900D01*
Y2262896D01*
X4497661Y2249959D01*
X4507563Y2240057D01*
X4520500Y2234698D01*
X4534504D01*
X4547441Y2240057D01*
X4557343Y2249959D01*
X4562702Y2262896D01*
Y2276900D01*
X4557343Y2289837D01*
X4547441Y2299739D01*
X4534504Y2305098D01*
D02*
G37*
G36*
X4034504Y2205099D02*
X4020500D01*
X4007563Y2199740D01*
X3997661Y2189838D01*
X3992302Y2176901D01*
Y2162897D01*
X3997661Y2149960D01*
X4007563Y2140058D01*
X4020500Y2134699D01*
X4034504D01*
X4047441Y2140058D01*
X4057343Y2149960D01*
X4062702Y2162897D01*
Y2176901D01*
X4057343Y2189838D01*
X4047441Y2199740D01*
X4034504Y2205099D01*
D02*
G37*
G36*
X4234504Y2205098D02*
X4220500D01*
X4207563Y2199740D01*
X4197661Y2189838D01*
X4192302Y2176900D01*
Y2162897D01*
X4197661Y2149960D01*
X4207563Y2140058D01*
X4220500Y2134699D01*
X4234504D01*
X4247441Y2140058D01*
X4257343Y2149960D01*
X4262702Y2162897D01*
Y2176900D01*
X4257343Y2189838D01*
X4247441Y2199740D01*
X4234504Y2205098D01*
D02*
G37*
G36*
X4434504Y2205098D02*
X4420500D01*
X4407563Y2199739D01*
X4397661Y2189837D01*
X4392302Y2176900D01*
Y2162897D01*
X4397661Y2149959D01*
X4407563Y2140057D01*
X4420500Y2134699D01*
X4434504D01*
X4447441Y2140057D01*
X4457343Y2149959D01*
X4462702Y2162897D01*
Y2176900D01*
X4457343Y2189837D01*
X4447441Y2199739D01*
X4434504Y2205098D01*
D02*
G37*
G36*
X4634504Y2205098D02*
X4620500D01*
X4607563Y2199739D01*
X4597661Y2189837D01*
X4592302Y2176900D01*
Y2162896D01*
X4597661Y2149959D01*
X4607563Y2140057D01*
X4620500Y2134698D01*
X4634504D01*
X4647441Y2140057D01*
X4657343Y2149959D01*
X4662702Y2162896D01*
Y2176900D01*
X4657343Y2189837D01*
X4647441Y2199739D01*
X4634504Y2205098D01*
D02*
G37*
G36*
X4134504Y2105099D02*
X4120500D01*
X4107563Y2099740D01*
X4097661Y2089838D01*
X4092302Y2076901D01*
Y2062897D01*
X4097661Y2049960D01*
X4107563Y2040058D01*
X4120500Y2034699D01*
X4134504D01*
X4147441Y2040058D01*
X4157343Y2049960D01*
X4162702Y2062897D01*
Y2076901D01*
X4157343Y2089838D01*
X4147441Y2099740D01*
X4134504Y2105099D01*
D02*
G37*
G36*
X4334504Y2105098D02*
X4320500D01*
X4307563Y2099740D01*
X4297661Y2089838D01*
X4292302Y2076900D01*
Y2062897D01*
X4297661Y2049960D01*
X4307563Y2040058D01*
X4320500Y2034699D01*
X4334504D01*
X4347441Y2040058D01*
X4357343Y2049960D01*
X4362702Y2062897D01*
Y2076900D01*
X4357343Y2089838D01*
X4347441Y2099740D01*
X4334504Y2105098D01*
D02*
G37*
G36*
X4534504Y2105098D02*
X4520500D01*
X4507563Y2099739D01*
X4497661Y2089837D01*
X4492302Y2076900D01*
Y2062897D01*
X4497661Y2049959D01*
X4507563Y2040057D01*
X4520500Y2034698D01*
X4534504D01*
X4547441Y2040057D01*
X4557343Y2049959D01*
X4562702Y2062897D01*
Y2076900D01*
X4557343Y2089837D01*
X4547441Y2099739D01*
X4534504Y2105098D01*
D02*
G37*
G36*
X4034504Y2005099D02*
X4020500D01*
X4007563Y1999740D01*
X3997661Y1989838D01*
X3992302Y1976901D01*
Y1962897D01*
X3997661Y1949960D01*
X4007563Y1940058D01*
X4020500Y1934699D01*
X4034504D01*
X4047441Y1940058D01*
X4057343Y1949960D01*
X4062702Y1962897D01*
Y1976901D01*
X4057343Y1989838D01*
X4047441Y1999740D01*
X4034504Y2005099D01*
D02*
G37*
G36*
X4234504Y2005099D02*
X4220500D01*
X4207563Y1999740D01*
X4197661Y1989838D01*
X4192302Y1976901D01*
Y1962897D01*
X4197661Y1949960D01*
X4207563Y1940058D01*
X4220500Y1934699D01*
X4234504D01*
X4247441Y1940058D01*
X4257343Y1949960D01*
X4262702Y1962897D01*
Y1976901D01*
X4257343Y1989838D01*
X4247441Y1999740D01*
X4234504Y2005099D01*
D02*
G37*
G36*
X4434503Y2005098D02*
X4420500D01*
X4407563Y1999739D01*
X4397661Y1989838D01*
X4392302Y1976900D01*
Y1962897D01*
X4397661Y1949960D01*
X4407563Y1940058D01*
X4420500Y1934699D01*
X4434503D01*
X4447441Y1940058D01*
X4457343Y1949960D01*
X4462702Y1962897D01*
Y1976900D01*
X4457343Y1989838D01*
X4447441Y1999739D01*
X4434503Y2005098D01*
D02*
G37*
G36*
X4634503Y2005098D02*
X4620500D01*
X4607563Y1999739D01*
X4597661Y1989837D01*
X4592302Y1976900D01*
Y1962897D01*
X4597661Y1949959D01*
X4607563Y1940057D01*
X4620500Y1934698D01*
X4634503D01*
X4647441Y1940057D01*
X4657342Y1949959D01*
X4662701Y1962897D01*
Y1976900D01*
X4657342Y1989837D01*
X4647441Y1999739D01*
X4634503Y2005098D01*
D02*
G37*
G36*
X4834503Y2005098D02*
X4820500D01*
X4807562Y1999739D01*
X4797660Y1989837D01*
X4792302Y1976900D01*
Y1962896D01*
X4797660Y1949959D01*
X4807562Y1940057D01*
X4820500Y1934698D01*
X4834503D01*
X4847440Y1940057D01*
X4857342Y1949959D01*
X4862701Y1962896D01*
Y1976900D01*
X4857342Y1989837D01*
X4847440Y1999739D01*
X4834503Y2005098D01*
D02*
G37*
G36*
X5034503Y2005098D02*
X5020499D01*
X5007562Y1999739D01*
X4997660Y1989837D01*
X4992301Y1976900D01*
Y1962896D01*
X4997660Y1949959D01*
X5007562Y1940057D01*
X5020499Y1934698D01*
X5034503D01*
X5047440Y1940057D01*
X5057342Y1949959D01*
X5062701Y1962896D01*
Y1976900D01*
X5057342Y1989837D01*
X5047440Y1999739D01*
X5034503Y2005098D01*
D02*
G37*
G36*
X5234503Y2005097D02*
X5220499D01*
X5207562Y1999738D01*
X5197660Y1989837D01*
X5192301Y1976899D01*
Y1962896D01*
X5197660Y1949959D01*
X5207562Y1940057D01*
X5220499Y1934698D01*
X5234503D01*
X5247440Y1940057D01*
X5257342Y1949959D01*
X5262701Y1962896D01*
Y1976899D01*
X5257342Y1989837D01*
X5247440Y1999738D01*
X5234503Y2005097D01*
D02*
G37*
G36*
X4134504Y1905099D02*
X4120500D01*
X4107563Y1899740D01*
X4097661Y1889838D01*
X4092302Y1876901D01*
Y1862897D01*
X4097661Y1849960D01*
X4107563Y1840058D01*
X4120500Y1834699D01*
X4134504D01*
X4147441Y1840058D01*
X4157343Y1849960D01*
X4162702Y1862897D01*
Y1876901D01*
X4157343Y1889838D01*
X4147441Y1899740D01*
X4134504Y1905099D01*
D02*
G37*
G36*
X4734503Y1905098D02*
X4720500D01*
X4707562Y1899739D01*
X4697660Y1889837D01*
X4692302Y1876900D01*
Y1862896D01*
X4697660Y1849959D01*
X4707562Y1840057D01*
X4720500Y1834698D01*
X4734503D01*
X4747440Y1840057D01*
X4757342Y1849959D01*
X4762701Y1862896D01*
Y1876900D01*
X4757342Y1889837D01*
X4747440Y1899739D01*
X4734503Y1905098D01*
D02*
G37*
G36*
X5134503Y1905098D02*
X5120499D01*
X5107562Y1899739D01*
X5097660Y1889837D01*
X5092301Y1876899D01*
Y1862896D01*
X5097660Y1849959D01*
X5107562Y1840057D01*
X5120499Y1834698D01*
X5134503D01*
X5147440Y1840057D01*
X5157342Y1849959D01*
X5162701Y1862896D01*
Y1876899D01*
X5157342Y1889837D01*
X5147440Y1899739D01*
X5134503Y1905098D01*
D02*
G37*
G36*
X647206Y3590747D02*
X28206D01*
X18486Y3586721D01*
X14459Y3577001D01*
Y1777001D01*
X18486Y1767280D01*
X28206Y1763254D01*
X647206D01*
X656926Y1767280D01*
X660952Y1777001D01*
Y3577001D01*
X656926Y3586721D01*
X647206Y3590747D01*
D02*
G37*
G36*
X4034503Y1805099D02*
X4020500D01*
X4007563Y1799740D01*
X3997661Y1789838D01*
X3992302Y1776901D01*
Y1762897D01*
X3997661Y1749960D01*
X4007563Y1740058D01*
X4020500Y1734699D01*
X4034503D01*
X4047441Y1740058D01*
X4057343Y1749960D01*
X4062702Y1762897D01*
Y1776901D01*
X4057343Y1789838D01*
X4047441Y1799740D01*
X4034503Y1805099D01*
D02*
G37*
G36*
X4834503Y1805098D02*
X4820499D01*
X4807562Y1799739D01*
X4797660Y1789837D01*
X4792301Y1776900D01*
Y1762896D01*
X4797660Y1749959D01*
X4807562Y1740057D01*
X4820499Y1734698D01*
X4834503D01*
X4847440Y1740057D01*
X4857342Y1749959D01*
X4862701Y1762896D01*
Y1776900D01*
X4857342Y1789837D01*
X4847440Y1799739D01*
X4834503Y1805098D01*
D02*
G37*
G36*
X5034503Y1805098D02*
X5020499D01*
X5007562Y1799739D01*
X4997660Y1789837D01*
X4992301Y1776900D01*
Y1762896D01*
X4997660Y1749959D01*
X5007562Y1740057D01*
X5020499Y1734698D01*
X5034503D01*
X5047440Y1740057D01*
X5057342Y1749959D01*
X5062701Y1762896D01*
Y1776900D01*
X5057342Y1789837D01*
X5047440Y1799739D01*
X5034503Y1805098D01*
D02*
G37*
G36*
X4134503Y1705099D02*
X4120500D01*
X4107563Y1699740D01*
X4097661Y1689838D01*
X4092302Y1676901D01*
Y1662897D01*
X4097661Y1649960D01*
X4107563Y1640058D01*
X4120500Y1634699D01*
X4134503D01*
X4147441Y1640058D01*
X4157342Y1649960D01*
X4162701Y1662897D01*
Y1676901D01*
X4157342Y1689838D01*
X4147441Y1699740D01*
X4134503Y1705099D01*
D02*
G37*
G36*
X4734503Y1705098D02*
X4720499D01*
X4707562Y1699739D01*
X4697660Y1689837D01*
X4692301Y1676900D01*
Y1662897D01*
X4697660Y1649959D01*
X4707562Y1640057D01*
X4720499Y1634699D01*
X4734503D01*
X4747440Y1640057D01*
X4757342Y1649959D01*
X4762701Y1662897D01*
Y1676900D01*
X4757342Y1689837D01*
X4747440Y1699739D01*
X4734503Y1705098D01*
D02*
G37*
G36*
X4934503Y1705098D02*
X4920499D01*
X4907562Y1699739D01*
X4897660Y1689837D01*
X4892301Y1676900D01*
Y1662896D01*
X4897660Y1649959D01*
X4907562Y1640057D01*
X4920499Y1634698D01*
X4934503D01*
X4947440Y1640057D01*
X4957342Y1649959D01*
X4962701Y1662896D01*
Y1676900D01*
X4957342Y1689837D01*
X4947440Y1699739D01*
X4934503Y1705098D01*
D02*
G37*
G36*
X5134503Y1705098D02*
X5120499D01*
X5107562Y1699739D01*
X5097660Y1689837D01*
X5092301Y1676900D01*
Y1662896D01*
X5097660Y1649959D01*
X5107562Y1640057D01*
X5120499Y1634698D01*
X5134503D01*
X5147440Y1640057D01*
X5157342Y1649959D01*
X5162701Y1662896D01*
Y1676900D01*
X5157342Y1689837D01*
X5147440Y1699739D01*
X5134503Y1705098D01*
D02*
G37*
G36*
X4034503Y1605099D02*
X4020500D01*
X4007562Y1599740D01*
X3997661Y1589838D01*
X3992302Y1576901D01*
Y1562898D01*
X3997661Y1549960D01*
X4007562Y1540058D01*
X4020500Y1534699D01*
X4034503D01*
X4047440Y1540058D01*
X4057342Y1549960D01*
X4062701Y1562898D01*
Y1576901D01*
X4057342Y1589838D01*
X4047440Y1599740D01*
X4034503Y1605099D01*
D02*
G37*
G36*
X4834503Y1605098D02*
X4820499D01*
X4807562Y1599739D01*
X4797660Y1589837D01*
X4792301Y1576900D01*
Y1562897D01*
X4797660Y1549959D01*
X4807562Y1540057D01*
X4820499Y1534698D01*
X4834503D01*
X4847440Y1540057D01*
X4857342Y1549959D01*
X4862701Y1562897D01*
Y1576900D01*
X4857342Y1589837D01*
X4847440Y1599739D01*
X4834503Y1605098D01*
D02*
G37*
G36*
X5034503Y1605098D02*
X5020499D01*
X5007562Y1599739D01*
X4997660Y1589837D01*
X4992301Y1576900D01*
Y1562896D01*
X4997660Y1549959D01*
X5007562Y1540057D01*
X5020499Y1534698D01*
X5034503D01*
X5047440Y1540057D01*
X5057342Y1549959D01*
X5062701Y1562896D01*
Y1576900D01*
X5057342Y1589837D01*
X5047440Y1599739D01*
X5034503Y1605098D01*
D02*
G37*
G36*
X4134503Y1505099D02*
X4120500D01*
X4107562Y1499740D01*
X4097660Y1489838D01*
X4092301Y1476901D01*
Y1462898D01*
X4097660Y1449960D01*
X4107562Y1440058D01*
X4120500Y1434699D01*
X4134503D01*
X4147440Y1440058D01*
X4157342Y1449960D01*
X4162701Y1462898D01*
Y1476901D01*
X4157342Y1489838D01*
X4147440Y1499740D01*
X4134503Y1505099D01*
D02*
G37*
G36*
X4334503Y1505099D02*
X4320499D01*
X4307562Y1499740D01*
X4297660Y1489838D01*
X4292301Y1476901D01*
Y1462897D01*
X4297660Y1449960D01*
X4307562Y1440058D01*
X4320499Y1434699D01*
X4334503D01*
X4347440Y1440058D01*
X4357342Y1449960D01*
X4362701Y1462897D01*
Y1476901D01*
X4357342Y1489838D01*
X4347440Y1499740D01*
X4334503Y1505099D01*
D02*
G37*
G36*
X4534503Y1505099D02*
X4520499D01*
X4507562Y1499740D01*
X4497660Y1489838D01*
X4492301Y1476901D01*
Y1462897D01*
X4497660Y1449960D01*
X4507562Y1440058D01*
X4520499Y1434699D01*
X4534503D01*
X4547440Y1440058D01*
X4557342Y1449960D01*
X4562701Y1462897D01*
Y1476901D01*
X4557342Y1489838D01*
X4547440Y1499740D01*
X4534503Y1505099D01*
D02*
G37*
G36*
X4734503Y1505098D02*
X4720499D01*
X4707562Y1499739D01*
X4697660Y1489838D01*
X4692301Y1476900D01*
Y1462897D01*
X4697660Y1449960D01*
X4707562Y1440058D01*
X4720499Y1434699D01*
X4734503D01*
X4747440Y1440058D01*
X4757342Y1449960D01*
X4762701Y1462897D01*
Y1476900D01*
X4757342Y1489838D01*
X4747440Y1499739D01*
X4734503Y1505098D01*
D02*
G37*
G36*
X4934502Y1505098D02*
X4920499D01*
X4907562Y1499739D01*
X4897660Y1489837D01*
X4892301Y1476900D01*
Y1462896D01*
X4897660Y1449959D01*
X4907562Y1440057D01*
X4920499Y1434698D01*
X4934502D01*
X4947440Y1440057D01*
X4957342Y1449959D01*
X4962701Y1462896D01*
Y1476900D01*
X4957342Y1489837D01*
X4947440Y1499739D01*
X4934502Y1505098D01*
D02*
G37*
G36*
X5134502Y1505098D02*
X5120499D01*
X5107562Y1499739D01*
X5097660Y1489837D01*
X5092301Y1476900D01*
Y1462896D01*
X5097660Y1449959D01*
X5107562Y1440057D01*
X5120499Y1434698D01*
X5134502D01*
X5147440Y1440057D01*
X5157341Y1449959D01*
X5162700Y1462896D01*
Y1476900D01*
X5157341Y1489837D01*
X5147440Y1499739D01*
X5134502Y1505098D01*
D02*
G37*
G36*
X4034503Y1405099D02*
X4020499D01*
X4007562Y1399740D01*
X3997660Y1389838D01*
X3992301Y1376901D01*
Y1362898D01*
X3997660Y1349960D01*
X4007562Y1340059D01*
X4020499Y1334700D01*
X4034503D01*
X4047440Y1340059D01*
X4057342Y1349960D01*
X4062701Y1362898D01*
Y1376901D01*
X4057342Y1389838D01*
X4047440Y1399740D01*
X4034503Y1405099D01*
D02*
G37*
G36*
X4234503Y1405099D02*
X4220499D01*
X4207562Y1399740D01*
X4197660Y1389838D01*
X4192301Y1376901D01*
Y1362897D01*
X4197660Y1349960D01*
X4207562Y1340058D01*
X4220499Y1334699D01*
X4234503D01*
X4247440Y1340058D01*
X4257342Y1349960D01*
X4262701Y1362897D01*
Y1376901D01*
X4257342Y1389838D01*
X4247440Y1399740D01*
X4234503Y1405099D01*
D02*
G37*
G36*
X4434503Y1405099D02*
X4420499D01*
X4407562Y1399740D01*
X4397660Y1389838D01*
X4392301Y1376901D01*
Y1362897D01*
X4397660Y1349960D01*
X4407562Y1340058D01*
X4420499Y1334699D01*
X4434503D01*
X4447440Y1340058D01*
X4457342Y1349960D01*
X4462701Y1362897D01*
Y1376901D01*
X4457342Y1389838D01*
X4447440Y1399740D01*
X4434503Y1405099D01*
D02*
G37*
G36*
X4634503Y1405099D02*
X4620499D01*
X4607562Y1399740D01*
X4597660Y1389838D01*
X4592301Y1376900D01*
Y1362897D01*
X4597660Y1349960D01*
X4607562Y1340058D01*
X4620499Y1334699D01*
X4634503D01*
X4647440Y1340058D01*
X4657342Y1349960D01*
X4662701Y1362897D01*
Y1376900D01*
X4657342Y1389838D01*
X4647440Y1399740D01*
X4634503Y1405099D01*
D02*
G37*
G36*
X5034502Y1405098D02*
X5020499D01*
X5007561Y1399739D01*
X4997660Y1389837D01*
X4992301Y1376900D01*
Y1362896D01*
X4997660Y1349959D01*
X5007561Y1340057D01*
X5020499Y1334698D01*
X5034502D01*
X5047439Y1340057D01*
X5057341Y1349959D01*
X5062700Y1362896D01*
Y1376900D01*
X5057341Y1389837D01*
X5047439Y1399739D01*
X5034502Y1405098D01*
D02*
G37*
G36*
X907002Y1335200D02*
X892998D01*
X880061Y1329841D01*
X870159Y1319939D01*
X864800Y1307001D01*
Y1292998D01*
X870159Y1280061D01*
X880061Y1270159D01*
X892998Y1264800D01*
X907002D01*
X919939Y1270159D01*
X929841Y1280061D01*
X935200Y1292998D01*
Y1307001D01*
X929841Y1319939D01*
X919939Y1329841D01*
X907002Y1335200D01*
D02*
G37*
G36*
X1107002Y1335199D02*
X1092998D01*
X1080061Y1329840D01*
X1070159Y1319938D01*
X1064800Y1307001D01*
Y1292998D01*
X1070159Y1280060D01*
X1080061Y1270158D01*
X1092998Y1264800D01*
X1107002D01*
X1119939Y1270158D01*
X1129841Y1280060D01*
X1135200Y1292998D01*
Y1307001D01*
X1129841Y1319938D01*
X1119939Y1329840D01*
X1107002Y1335199D01*
D02*
G37*
G36*
X4134503Y1305099D02*
X4120499D01*
X4107562Y1299740D01*
X4097660Y1289838D01*
X4092301Y1276901D01*
Y1262898D01*
X4097660Y1249960D01*
X4107562Y1240058D01*
X4120499Y1234700D01*
X4134503D01*
X4147440Y1240058D01*
X4157342Y1249960D01*
X4162701Y1262898D01*
Y1276901D01*
X4157342Y1289838D01*
X4147440Y1299740D01*
X4134503Y1305099D01*
D02*
G37*
G36*
X4334503Y1305099D02*
X4320499D01*
X4307562Y1299740D01*
X4297660Y1289838D01*
X4292301Y1276901D01*
Y1262897D01*
X4297660Y1249960D01*
X4307562Y1240058D01*
X4320499Y1234699D01*
X4334503D01*
X4347440Y1240058D01*
X4357342Y1249960D01*
X4362701Y1262897D01*
Y1276901D01*
X4357342Y1289838D01*
X4347440Y1299740D01*
X4334503Y1305099D01*
D02*
G37*
G36*
X4534502Y1305099D02*
X4520499D01*
X4507562Y1299740D01*
X4497660Y1289838D01*
X4492301Y1276901D01*
Y1262897D01*
X4497660Y1249960D01*
X4507562Y1240058D01*
X4520499Y1234699D01*
X4534502D01*
X4547440Y1240058D01*
X4557342Y1249960D01*
X4562701Y1262897D01*
Y1276901D01*
X4557342Y1289838D01*
X4547440Y1299740D01*
X4534502Y1305099D01*
D02*
G37*
G36*
X5134502Y1305098D02*
X5120499D01*
X5107561Y1299739D01*
X5097659Y1289837D01*
X5092300Y1276900D01*
Y1262896D01*
X5097659Y1249959D01*
X5107561Y1240057D01*
X5120499Y1234698D01*
X5134502D01*
X5147439Y1240057D01*
X5157341Y1249959D01*
X5162700Y1262896D01*
Y1276900D01*
X5157341Y1289837D01*
X5147439Y1299739D01*
X5134502Y1305098D01*
D02*
G37*
G36*
X1007002Y1235199D02*
X992998D01*
X980061Y1229841D01*
X970159Y1219939D01*
X964800Y1207001D01*
Y1192998D01*
X970159Y1180061D01*
X980061Y1170159D01*
X992998Y1164800D01*
X1007002D01*
X1019939Y1170159D01*
X1029841Y1180061D01*
X1035200Y1192998D01*
Y1207001D01*
X1029841Y1219939D01*
X1019939Y1229841D01*
X1007002Y1235199D01*
D02*
G37*
G36*
X4234503Y1205099D02*
X4220499D01*
X4207562Y1199740D01*
X4197660Y1189838D01*
X4192301Y1176901D01*
Y1162898D01*
X4197660Y1149960D01*
X4207562Y1140058D01*
X4220499Y1134700D01*
X4234503D01*
X4247440Y1140058D01*
X4257342Y1149960D01*
X4262701Y1162898D01*
Y1176901D01*
X4257342Y1189838D01*
X4247440Y1199740D01*
X4234503Y1205099D01*
D02*
G37*
G36*
X4434502Y1205099D02*
X4420499D01*
X4407562Y1199740D01*
X4397660Y1189838D01*
X4392301Y1176901D01*
Y1162897D01*
X4397660Y1149960D01*
X4407562Y1140058D01*
X4420499Y1134699D01*
X4434502D01*
X4447440Y1140058D01*
X4457342Y1149960D01*
X4462700Y1162897D01*
Y1176901D01*
X4457342Y1189838D01*
X4447440Y1199740D01*
X4434502Y1205099D01*
D02*
G37*
G36*
X4634502Y1205099D02*
X4620499D01*
X4607562Y1199740D01*
X4597660Y1189838D01*
X4592301Y1176901D01*
Y1162897D01*
X4597660Y1149960D01*
X4607562Y1140058D01*
X4620499Y1134699D01*
X4634502D01*
X4647440Y1140058D01*
X4657341Y1149960D01*
X4662700Y1162897D01*
Y1176901D01*
X4657341Y1189838D01*
X4647440Y1199740D01*
X4634502Y1205099D01*
D02*
G37*
G36*
X4134503Y1105099D02*
X4120499D01*
X4107562Y1099740D01*
X4097660Y1089839D01*
X4092301Y1076901D01*
Y1062898D01*
X4097660Y1049961D01*
X4107562Y1040059D01*
X4120499Y1034700D01*
X4134503D01*
X4147440Y1040059D01*
X4157342Y1049961D01*
X4162701Y1062898D01*
Y1076901D01*
X4157342Y1089839D01*
X4147440Y1099740D01*
X4134503Y1105099D01*
D02*
G37*
G36*
X4334502Y1105099D02*
X4320499D01*
X4307562Y1099740D01*
X4297660Y1089838D01*
X4292301Y1076901D01*
Y1062898D01*
X4297660Y1049960D01*
X4307562Y1040058D01*
X4320499Y1034699D01*
X4334502D01*
X4347440Y1040058D01*
X4357342Y1049960D01*
X4362700Y1062898D01*
Y1076901D01*
X4357342Y1089838D01*
X4347440Y1099740D01*
X4334502Y1105099D01*
D02*
G37*
G36*
X4534502Y1105099D02*
X4520499D01*
X4507561Y1099740D01*
X4497660Y1089838D01*
X4492301Y1076901D01*
Y1062897D01*
X4497660Y1049960D01*
X4507561Y1040058D01*
X4520499Y1034699D01*
X4534502D01*
X4547439Y1040058D01*
X4557341Y1049960D01*
X4562700Y1062897D01*
Y1076901D01*
X4557341Y1089838D01*
X4547439Y1099740D01*
X4534502Y1105099D01*
D02*
G37*
G36*
X4234502Y1005099D02*
X4220499D01*
X4207562Y999740D01*
X4197660Y989839D01*
X4192301Y976901D01*
Y962898D01*
X4197660Y949961D01*
X4207562Y940059D01*
X4220499Y934700D01*
X4234502D01*
X4247440Y940059D01*
X4257341Y949961D01*
X4262700Y962898D01*
Y976901D01*
X4257341Y989839D01*
X4247440Y999740D01*
X4234502Y1005099D01*
D02*
G37*
G36*
X4434502Y1005099D02*
X4420499D01*
X4407561Y999740D01*
X4397659Y989838D01*
X4392301Y976901D01*
Y962897D01*
X4397659Y949960D01*
X4407561Y940058D01*
X4420499Y934699D01*
X4434502D01*
X4447439Y940058D01*
X4457341Y949960D01*
X4462700Y962897D01*
Y976901D01*
X4457341Y989838D01*
X4447439Y999740D01*
X4434502Y1005099D01*
D02*
G37*
G36*
X4634502Y1005099D02*
X4620499D01*
X4607561Y999740D01*
X4597659Y989838D01*
X4592300Y976901D01*
Y962897D01*
X4597659Y949960D01*
X4607561Y940058D01*
X4620499Y934699D01*
X4634502D01*
X4647439Y940058D01*
X4657341Y949960D01*
X4662700Y962897D01*
Y976901D01*
X4657341Y989838D01*
X4647439Y999740D01*
X4634502Y1005099D01*
D02*
G37*
G36*
X4834502Y1005099D02*
X4820498D01*
X4807561Y999740D01*
X4797659Y989838D01*
X4792300Y976901D01*
Y962897D01*
X4797659Y949960D01*
X4807561Y940058D01*
X4820498Y934699D01*
X4834502D01*
X4847439Y940058D01*
X4857341Y949960D01*
X4862700Y962897D01*
Y976901D01*
X4857341Y989838D01*
X4847439Y999740D01*
X4834502Y1005099D01*
D02*
G37*
G36*
X5433521Y1132700D02*
X5406479D01*
X5380359Y1125701D01*
X5356941Y1112180D01*
X5337820Y1093059D01*
X5324299Y1069641D01*
X5317300Y1043521D01*
Y1016479D01*
X5324299Y990359D01*
X5337820Y966941D01*
X5356941Y947820D01*
X5380359Y934299D01*
X5406479Y927300D01*
X5433521D01*
X5459641Y934299D01*
X5483059Y947820D01*
X5502181Y966941D01*
X5515701Y990359D01*
X5522700Y1016479D01*
Y1043521D01*
X5515701Y1069641D01*
X5502181Y1093059D01*
X5483059Y1112180D01*
X5459641Y1125701D01*
X5433521Y1132700D01*
D02*
G37*
G36*
X4134502Y905100D02*
X4120499D01*
X4107562Y899741D01*
X4097660Y889839D01*
X4092301Y876901D01*
Y862898D01*
X4097660Y849961D01*
X4107562Y840059D01*
X4120499Y834700D01*
X4134502D01*
X4147440Y840059D01*
X4157341Y849961D01*
X4162700Y862898D01*
Y876901D01*
X4157341Y889839D01*
X4147440Y899741D01*
X4134502Y905100D01*
D02*
G37*
G36*
X4334502Y905099D02*
X4320499D01*
X4307561Y899740D01*
X4297659Y889838D01*
X4292301Y876901D01*
Y862898D01*
X4297659Y849960D01*
X4307561Y840059D01*
X4320499Y834700D01*
X4334502D01*
X4347439Y840059D01*
X4357341Y849960D01*
X4362700Y862898D01*
Y876901D01*
X4357341Y889838D01*
X4347439Y899740D01*
X4334502Y905099D01*
D02*
G37*
G36*
X4534502Y905099D02*
X4520498D01*
X4507561Y899740D01*
X4497659Y889838D01*
X4492300Y876901D01*
Y862897D01*
X4497659Y849960D01*
X4507561Y840058D01*
X4520498Y834699D01*
X4534502D01*
X4547439Y840058D01*
X4557341Y849960D01*
X4562700Y862897D01*
Y876901D01*
X4557341Y889838D01*
X4547439Y899740D01*
X4534502Y905099D01*
D02*
G37*
G36*
X4734502Y905099D02*
X4720498D01*
X4707561Y899740D01*
X4697659Y889838D01*
X4692300Y876901D01*
Y862897D01*
X4697659Y849960D01*
X4707561Y840058D01*
X4720498Y834699D01*
X4734502D01*
X4747439Y840058D01*
X4757341Y849960D01*
X4762700Y862897D01*
Y876901D01*
X4757341Y889838D01*
X4747439Y899740D01*
X4734502Y905099D01*
D02*
G37*
G36*
X4234502Y805099D02*
X4220499D01*
X4207561Y799741D01*
X4197659Y789839D01*
X4192300Y776901D01*
Y762898D01*
X4197659Y749961D01*
X4207561Y740059D01*
X4220499Y734700D01*
X4234502D01*
X4247439Y740059D01*
X4257341Y749961D01*
X4262700Y762898D01*
Y776901D01*
X4257341Y789839D01*
X4247439Y799741D01*
X4234502Y805099D01*
D02*
G37*
G36*
X4434502Y805099D02*
X4420498D01*
X4407561Y799740D01*
X4397659Y789838D01*
X4392300Y776901D01*
Y762898D01*
X4397659Y749960D01*
X4407561Y740058D01*
X4420498Y734700D01*
X4434502D01*
X4447439Y740058D01*
X4457341Y749960D01*
X4462700Y762898D01*
Y776901D01*
X4457341Y789838D01*
X4447439Y799740D01*
X4434502Y805099D01*
D02*
G37*
G36*
X4634502Y805099D02*
X4620498D01*
X4607561Y799740D01*
X4597659Y789838D01*
X4592300Y776901D01*
Y762897D01*
X4597659Y749960D01*
X4607561Y740058D01*
X4620498Y734699D01*
X4634502D01*
X4647439Y740058D01*
X4657341Y749960D01*
X4662700Y762897D01*
Y776901D01*
X4657341Y789838D01*
X4647439Y799740D01*
X4634502Y805099D01*
D02*
G37*
G36*
X4834502Y805099D02*
X4820498D01*
X4807561Y799740D01*
X4797659Y789838D01*
X4792300Y776901D01*
Y762897D01*
X4797659Y749960D01*
X4807561Y740058D01*
X4820498Y734699D01*
X4834502D01*
X4847439Y740058D01*
X4857341Y749960D01*
X4862700Y762897D01*
Y776901D01*
X4857341Y789838D01*
X4847439Y799740D01*
X4834502Y805099D01*
D02*
G37*
G36*
X4334502Y705099D02*
X4320498D01*
X4307561Y699741D01*
X4297659Y689839D01*
X4292300Y676901D01*
Y662898D01*
X4297659Y649961D01*
X4307561Y640059D01*
X4320498Y634700D01*
X4334502D01*
X4347439Y640059D01*
X4357341Y649961D01*
X4362700Y662898D01*
Y676901D01*
X4357341Y689839D01*
X4347439Y699741D01*
X4334502Y705099D01*
D02*
G37*
G36*
X4534502Y705099D02*
X4520498D01*
X4507561Y699740D01*
X4497659Y689838D01*
X4492300Y676901D01*
Y662898D01*
X4497659Y649960D01*
X4507561Y640058D01*
X4520498Y634700D01*
X4534502D01*
X4547439Y640058D01*
X4557341Y649960D01*
X4562700Y662898D01*
Y676901D01*
X4557341Y689838D01*
X4547439Y699740D01*
X4534502Y705099D01*
D02*
G37*
G36*
X4129912Y769620D02*
X4109848D01*
X4090468Y764427D01*
X4073092Y754395D01*
X4058905Y740208D01*
X4048873Y722832D01*
X4043680Y703452D01*
Y683388D01*
X4048873Y664008D01*
X4058905Y646632D01*
X4073092Y632445D01*
X4090468Y622413D01*
X4109848Y617220D01*
X4129912D01*
X4149292Y622413D01*
X4166668Y632445D01*
X4180855Y646632D01*
X4190887Y664008D01*
X4196080Y683388D01*
Y703452D01*
X4190887Y722832D01*
X4180855Y740208D01*
X4166668Y754395D01*
X4149292Y764427D01*
X4129912Y769620D01*
D02*
G37*
G36*
X3621912D02*
X3601848D01*
X3582468Y764427D01*
X3565092Y754395D01*
X3550905Y740208D01*
X3540873Y722832D01*
X3535680Y703452D01*
Y683388D01*
X3540873Y664008D01*
X3550905Y646632D01*
X3565092Y632445D01*
X3582468Y622413D01*
X3601848Y617220D01*
X3621912D01*
X3641292Y622413D01*
X3658668Y632445D01*
X3672855Y646632D01*
X3682887Y664008D01*
X3688080Y683388D01*
Y703452D01*
X3682887Y722832D01*
X3672855Y740208D01*
X3658668Y754395D01*
X3641292Y764427D01*
X3621912Y769620D01*
D02*
G37*
G36*
X4034502Y605100D02*
X4020498D01*
X4007561Y599741D01*
X3997659Y589839D01*
X3992300Y576902D01*
Y562898D01*
X3997659Y549961D01*
X4007561Y540059D01*
X4020498Y534700D01*
X4034502D01*
X4047439Y540059D01*
X4057341Y549961D01*
X4062700Y562898D01*
Y576902D01*
X4057341Y589839D01*
X4047439Y599741D01*
X4034502Y605100D01*
D02*
G37*
G36*
X4234502Y605100D02*
X4220498D01*
X4207561Y599741D01*
X4197659Y589839D01*
X4192300Y576902D01*
Y562898D01*
X4197659Y549961D01*
X4207561Y540059D01*
X4220498Y534700D01*
X4234502D01*
X4247439Y540059D01*
X4257341Y549961D01*
X4262700Y562898D01*
Y576902D01*
X4257341Y589839D01*
X4247439Y599741D01*
X4234502Y605100D01*
D02*
G37*
G36*
X4434502Y605099D02*
X4420498D01*
X4407561Y599740D01*
X4397659Y589839D01*
X4392300Y576901D01*
Y562898D01*
X4397659Y549961D01*
X4407561Y540059D01*
X4420498Y534700D01*
X4434502D01*
X4447439Y540059D01*
X4457341Y549961D01*
X4462700Y562898D01*
Y576901D01*
X4457341Y589839D01*
X4447439Y599740D01*
X4434502Y605099D01*
D02*
G37*
G36*
X4634502Y605099D02*
X4620498D01*
X4607561Y599740D01*
X4597659Y589838D01*
X4592300Y576901D01*
Y562898D01*
X4597659Y549960D01*
X4607561Y540058D01*
X4620498Y534699D01*
X4634502D01*
X4647439Y540058D01*
X4657341Y549960D01*
X4662700Y562898D01*
Y576901D01*
X4657341Y589838D01*
X4647439Y599740D01*
X4634502Y605099D01*
D02*
G37*
G36*
X5432862Y677700D02*
X5407138D01*
X5382289Y671042D01*
X5360011Y658179D01*
X5341821Y639989D01*
X5328958Y617710D01*
X5322300Y592862D01*
Y567138D01*
X5328958Y542289D01*
X5341821Y520011D01*
X5360011Y501820D01*
X5382289Y488958D01*
X5407138Y482300D01*
X5432862D01*
X5457711Y488958D01*
X5479989Y501820D01*
X5498180Y520011D01*
X5511042Y542289D01*
X5517700Y567138D01*
Y592862D01*
X5511042Y617710D01*
X5498180Y639989D01*
X5479989Y658179D01*
X5457711Y671042D01*
X5432862Y677700D01*
D02*
G37*
G36*
X4134502Y505100D02*
X4120498D01*
X4107561Y499741D01*
X4097659Y489839D01*
X4092300Y476902D01*
Y462898D01*
X4097659Y449961D01*
X4107561Y440059D01*
X4120498Y434700D01*
X4134502D01*
X4147439Y440059D01*
X4157341Y449961D01*
X4162700Y462898D01*
Y476902D01*
X4157341Y489839D01*
X4147439Y499741D01*
X4134502Y505100D01*
D02*
G37*
G36*
X4334502Y505100D02*
X4320498D01*
X4307561Y499741D01*
X4297659Y489839D01*
X4292300Y476902D01*
Y462898D01*
X4297659Y449961D01*
X4307561Y440059D01*
X4320498Y434700D01*
X4334502D01*
X4347439Y440059D01*
X4357341Y449961D01*
X4362700Y462898D01*
Y476902D01*
X4357341Y489839D01*
X4347439Y499741D01*
X4334502Y505100D01*
D02*
G37*
G36*
X4534501Y505099D02*
X4520498D01*
X4507561Y499740D01*
X4497659Y489838D01*
X4492300Y476901D01*
Y462898D01*
X4497659Y449960D01*
X4507561Y440059D01*
X4520498Y434700D01*
X4534501D01*
X4547439Y440059D01*
X4557341Y449960D01*
X4562700Y462898D01*
Y476901D01*
X4557341Y489838D01*
X4547439Y499740D01*
X4534501Y505099D01*
D02*
G37*
G36*
X6512472Y462700D02*
X6487528D01*
X6464483Y453154D01*
X6446846Y435517D01*
X6437300Y412472D01*
Y387528D01*
X6446846Y364483D01*
X6464483Y346846D01*
X6487528Y337300D01*
X6512472D01*
X6535517Y346846D01*
X6553154Y364483D01*
X6562700Y387528D01*
Y412472D01*
X6553154Y435517D01*
X6535517Y453154D01*
X6512472Y462700D01*
D02*
G37*
G36*
X412472D02*
X387528D01*
X364483Y453154D01*
X346846Y435517D01*
X337300Y412472D01*
Y387528D01*
X346846Y364483D01*
X364483Y346846D01*
X387528Y337300D01*
X412472D01*
X435517Y346846D01*
X453154Y364483D01*
X462700Y387528D01*
Y412472D01*
X453154Y435517D01*
X435517Y453154D01*
X412472Y462700D01*
D02*
G37*
G36*
X4034502Y405100D02*
X4020498D01*
X4007561Y399741D01*
X3997659Y389839D01*
X3992300Y376902D01*
Y362898D01*
X3997659Y349961D01*
X4007561Y340059D01*
X4020498Y334700D01*
X4034502D01*
X4047439Y340059D01*
X4057341Y349961D01*
X4062700Y362898D01*
Y376902D01*
X4057341Y389839D01*
X4047439Y399741D01*
X4034502Y405100D01*
D02*
G37*
G36*
X4234502Y405100D02*
X4220498D01*
X4207561Y399741D01*
X4197659Y389839D01*
X4192300Y376902D01*
Y362898D01*
X4197659Y349961D01*
X4207561Y340059D01*
X4220498Y334700D01*
X4234502D01*
X4247439Y340059D01*
X4257341Y349961D01*
X4262700Y362898D01*
Y376902D01*
X4257341Y389839D01*
X4247439Y399741D01*
X4234502Y405100D01*
D02*
G37*
G36*
X4434501Y405100D02*
X4420498D01*
X4407561Y399741D01*
X4397659Y389839D01*
X4392300Y376901D01*
Y362898D01*
X4397659Y349961D01*
X4407561Y340059D01*
X4420498Y334700D01*
X4434501D01*
X4447439Y340059D01*
X4457341Y349961D01*
X4462699Y362898D01*
Y376901D01*
X4457341Y389839D01*
X4447439Y399741D01*
X4434501Y405100D01*
D02*
G37*
%LPD*%
D27*
X2971940Y1653680D02*
X4878340Y3560080D01*
X2098040Y1602740D02*
X2986741D01*
X4978400Y3594399D02*
Y3708400D01*
X4878340Y3560080D02*
Y3562080D01*
X2986741Y1602740D02*
X4978400Y3594399D01*
X2047240Y1653540D02*
X2098040Y1602740D01*
X2174100Y1653680D02*
X2971940D01*
D28*
X3611880Y693420D02*
D03*
X3865880D02*
D03*
X4119880D02*
D03*
D29*
X2997200Y2540000D02*
D03*
Y2794000D02*
D03*
Y3048000D02*
D03*
X1470000Y4670000D02*
D03*
X1724000D02*
D03*
X1978000D02*
D03*
X1155700Y4673600D02*
D03*
X901700D02*
D03*
X647700D02*
D03*
X2687320Y3853180D02*
D03*
X6489700Y2794000D02*
D03*
Y3048000D02*
D03*
Y3302000D02*
D03*
D30*
X2997200D02*
D03*
X6489700Y2540000D02*
D03*
D31*
X2232000Y4670000D02*
D03*
X393700Y4673600D02*
D03*
X2433320Y3853180D02*
D03*
D32*
X5420000Y1030000D02*
D03*
D33*
Y580000D02*
D03*
D34*
X5880100Y3987800D02*
D03*
X5765800Y4102100D02*
D03*
X4102100Y4178300D02*
D03*
X4229100Y4051300D02*
D03*
X5100000Y3250000D02*
D03*
X3000000Y4150000D02*
D03*
X2550000D02*
D03*
X5600000Y3900000D02*
D03*
X3950000Y3950000D02*
D03*
X4900000Y4000000D02*
D03*
X6100000Y3300000D02*
D03*
X5900000D02*
D03*
X5700000D02*
D03*
X3200000D02*
D03*
Y3400000D02*
D03*
X750774Y1944489D02*
D03*
Y2044489D02*
D03*
Y2144489D02*
D03*
Y2244489D02*
D03*
Y2344489D02*
D03*
Y2444489D02*
D03*
Y2544489D02*
D03*
Y2644489D02*
D03*
Y2744489D02*
D03*
Y2844489D02*
D03*
Y2944489D02*
D03*
Y3044489D02*
D03*
Y3144489D02*
D03*
Y3244489D02*
D03*
X6750000Y5000000D02*
D03*
X6500000Y4500000D02*
D03*
X6750000Y4000000D02*
D03*
X6500000Y3500000D02*
D03*
X6750000Y3000000D02*
D03*
Y2000000D02*
D03*
X6500000Y1500000D02*
D03*
X6750000Y1000000D02*
D03*
X6500000Y500000D02*
D03*
X6250000Y5000000D02*
D03*
X6000000Y4500000D02*
D03*
X6250000Y4000000D02*
D03*
Y3000000D02*
D03*
X6000000Y2500000D02*
D03*
X6250000Y2000000D02*
D03*
X6000000Y1500000D02*
D03*
X6250000Y1000000D02*
D03*
X5750000Y5000000D02*
D03*
X5500000Y4500000D02*
D03*
X5750000Y3000000D02*
D03*
X5500000Y2500000D02*
D03*
X5750000Y2000000D02*
D03*
X5500000Y1500000D02*
D03*
X5750000Y1000000D02*
D03*
X5250000Y5000000D02*
D03*
X5000000Y4500000D02*
D03*
X5250000Y1000000D02*
D03*
X4750000Y5000000D02*
D03*
X4500000Y4500000D02*
D03*
X4750000Y3000000D02*
D03*
X4250000Y5000000D02*
D03*
X4000000Y4500000D02*
D03*
X3750000Y5000000D02*
D03*
X3500000Y4500000D02*
D03*
X3750000Y2000000D02*
D03*
X3500000Y1500000D02*
D03*
X3750000Y1000000D02*
D03*
X3500000Y500000D02*
D03*
X3250000Y5000000D02*
D03*
X3000000Y4500000D02*
D03*
Y1500000D02*
D03*
X3250000Y1000000D02*
D03*
X2750000Y5000000D02*
D03*
X2500000Y4500000D02*
D03*
X2750000Y3000000D02*
D03*
Y2000000D02*
D03*
Y1000000D02*
D03*
X2250000Y5000000D02*
D03*
X2000000Y4500000D02*
D03*
X2250000Y4000000D02*
D03*
Y3000000D02*
D03*
X2000000Y2500000D02*
D03*
X2250000Y2000000D02*
D03*
Y1000000D02*
D03*
X1750000Y5000000D02*
D03*
X1500000Y4500000D02*
D03*
X1750000Y4000000D02*
D03*
Y3000000D02*
D03*
Y2000000D02*
D03*
X1500000Y1500000D02*
D03*
X1750000Y1000000D02*
D03*
X1500000Y500000D02*
D03*
X1250000Y5000000D02*
D03*
Y3000000D02*
D03*
X1000000Y2500000D02*
D03*
X1250000Y2000000D02*
D03*
Y1000000D02*
D03*
X1000000Y500000D02*
D03*
X750000Y5000000D02*
D03*
X500000Y4500000D02*
D03*
X750000Y4000000D02*
D03*
X500000Y1500000D02*
D03*
X750000Y1000000D02*
D03*
X750774Y3344489D02*
D03*
Y3444489D02*
D03*
X650000Y3650000D02*
D03*
X550000D02*
D03*
X450000D02*
D03*
X350000D02*
D03*
X250000D02*
D03*
X50000D02*
D03*
X150000D02*
D03*
X650000Y1700000D02*
D03*
X550000D02*
D03*
X450000D02*
D03*
X350000D02*
D03*
X250000D02*
D03*
X50000D02*
D03*
X150000D02*
D03*
X4995000Y4167419D02*
D03*
X3356700Y4238539D02*
D03*
X5029200Y3833520D02*
D03*
X3390900Y3906520D02*
D03*
X3948530Y3442790D02*
D03*
X5586900Y3369860D02*
D03*
X5483860Y3267100D02*
D03*
X5081100Y3370140D02*
D03*
X3442800Y3443140D02*
D03*
X3845560Y3340100D02*
D03*
X4027502Y1769899D02*
D03*
X4027502Y1969899D02*
D03*
X4027502Y2169899D02*
D03*
X4027502Y2369899D02*
D03*
X4427502Y2369898D02*
D03*
X5227502Y2369897D02*
D03*
X5227501Y1969898D02*
D03*
X5027501Y1969898D02*
D03*
X5127500Y1269898D02*
D03*
X5127501Y1469898D02*
D03*
X5027500Y1369898D02*
D03*
X5027501Y1569898D02*
D03*
X5127501Y1669898D02*
D03*
X5127501Y1869898D02*
D03*
X4627502Y2169898D02*
D03*
X4627502Y2369898D02*
D03*
X4127502Y2269899D02*
D03*
X4127502Y2069899D02*
D03*
X4227502Y2369898D02*
D03*
X4227502Y2169899D02*
D03*
X4527502Y2269898D02*
D03*
X4327502Y2269898D02*
D03*
X4127502Y1869899D02*
D03*
X4127502Y1669899D02*
D03*
X4227502Y1969899D02*
D03*
X4327502Y2069899D02*
D03*
X4427502Y2169898D02*
D03*
X4427502Y1969899D02*
D03*
X4527502Y2069898D02*
D03*
X4827501Y1969898D02*
D03*
X4627502Y1969898D02*
D03*
X4727501Y1869898D02*
D03*
X4727501Y1669898D02*
D03*
X5027501Y1769898D02*
D03*
X4827501Y1769898D02*
D03*
X4927501Y1469898D02*
D03*
X4927501Y1669898D02*
D03*
X4827501Y1569898D02*
D03*
X4727501Y1469899D02*
D03*
X4527501Y1469899D02*
D03*
X4027501Y1569899D02*
D03*
X4327501Y1469899D02*
D03*
X4127501Y1469899D02*
D03*
X4627501Y1369899D02*
D03*
X4427501Y1369899D02*
D03*
X4227501Y1369899D02*
D03*
X4027501Y1369899D02*
D03*
X4627500Y969899D02*
D03*
X4627501Y1169899D02*
D03*
X4527501Y1269899D02*
D03*
X4327501Y1269899D02*
D03*
X4127501Y1269899D02*
D03*
X4127501Y1069900D02*
D03*
X4427501Y1169899D02*
D03*
X4227501Y1169899D02*
D03*
X4527500Y1069899D02*
D03*
X4327501Y1069899D02*
D03*
X4827500Y769899D02*
D03*
X4827500Y969899D02*
D03*
X4727500Y869899D02*
D03*
X4527500Y469899D02*
D03*
X4627500Y569899D02*
D03*
X4627500Y769899D02*
D03*
X4427500Y369900D02*
D03*
X4427500Y569900D02*
D03*
X4527500Y669899D02*
D03*
X4527500Y869899D02*
D03*
X4427500Y969899D02*
D03*
X4227501Y969900D02*
D03*
X4327500Y869899D02*
D03*
X4127501Y869900D02*
D03*
X4427500Y769899D02*
D03*
X4227500Y769900D02*
D03*
X4327500Y469900D02*
D03*
X4327500Y669900D02*
D03*
X4227500Y569900D02*
D03*
X4027500Y569900D02*
D03*
X4227500Y369900D02*
D03*
X4127500Y469900D02*
D03*
X4027500Y369900D02*
D03*
X4878340Y3562080D02*
D03*
X2174100Y1653680D02*
D03*
X4978400Y3708400D02*
D03*
X2047240Y1653540D02*
D03*
X1100000Y1299999D02*
D03*
X1000000Y1200000D02*
D03*
X900000Y1300000D02*
D03*
D35*
X6500000Y5000000D02*
D03*
X400000D02*
D03*
Y400000D02*
D03*
X6500000D02*
D03*
%TF.MD5,b0a33423d5fa166521df725618d94f4a*%
M02*
